<svg width="204" height="156" viewBox="0 0 204 156" fill="none" xmlns="http://www.w3.org/2000/svg">
<g clip-path="url(#clip0_332_3964)">
<path d="M44 20C44 10.0589 52.0589 2 62 2H142C151.941 2 160 10.0589 160 20V178H44V20Z" fill="white" stroke="#DBDEE0" stroke-width="4"/>
<path d="M77.7138 22V17.6364H78.3722V19.7202H78.4254L80.2557 17.6364H81.0845L79.3246 19.6009L81.0909 22H80.2983L78.8878 20.0504L78.3722 20.6428V22H77.7138ZM82.2841 20.0568V22H81.647V18.7273H82.2585V19.2599H82.299C82.3743 19.0866 82.4922 18.9474 82.6527 18.8423C82.8146 18.7372 83.0185 18.6847 83.2642 18.6847C83.4872 18.6847 83.6825 18.7315 83.8501 18.8253C84.0178 18.9176 84.1477 19.0554 84.2401 19.2386C84.3324 19.4219 84.3786 19.6484 84.3786 19.9183V22H83.7415V19.995C83.7415 19.7578 83.6797 19.5724 83.5561 19.4389C83.4325 19.304 83.2628 19.2365 83.0469 19.2365C82.8991 19.2365 82.7678 19.2685 82.6527 19.3324C82.5391 19.3963 82.4489 19.4901 82.3821 19.6136C82.3168 19.7358 82.2841 19.8835 82.2841 20.0568ZM86.6115 22.0661C86.3047 22.0661 86.0369 21.9957 85.8082 21.8551C85.5795 21.7145 85.402 21.5178 85.2756 21.2649C85.1491 21.0121 85.0859 20.7166 85.0859 20.3786C85.0859 20.0391 85.1491 19.7422 85.2756 19.4879C85.402 19.2337 85.5795 19.0362 85.8082 18.8956C86.0369 18.755 86.3047 18.6847 86.6115 18.6847C86.9183 18.6847 87.1861 18.755 87.4148 18.8956C87.6435 19.0362 87.821 19.2337 87.9474 19.4879C88.0739 19.7422 88.1371 20.0391 88.1371 20.3786C88.1371 20.7166 88.0739 21.0121 87.9474 21.2649C87.821 21.5178 87.6435 21.7145 87.4148 21.8551C87.1861 21.9957 86.9183 22.0661 86.6115 22.0661ZM86.6136 21.5312C86.8125 21.5312 86.9773 21.4787 87.108 21.3736C87.2386 21.2685 87.3352 21.1286 87.3977 20.9538C87.4616 20.7791 87.4936 20.5866 87.4936 20.3764C87.4936 20.1676 87.4616 19.9759 87.3977 19.8011C87.3352 19.625 87.2386 19.4837 87.108 19.3771C86.9773 19.2706 86.8125 19.2173 86.6136 19.2173C86.4134 19.2173 86.2472 19.2706 86.1151 19.3771C85.9844 19.4837 85.8871 19.625 85.8232 19.8011C85.7607 19.9759 85.7294 20.1676 85.7294 20.3764C85.7294 20.5866 85.7607 20.7791 85.8232 20.9538C85.8871 21.1286 85.9844 21.2685 86.1151 21.3736C86.2472 21.4787 86.4134 21.5312 86.6136 21.5312ZM89.4581 22L88.495 18.7273H89.1534L89.7947 21.1307H89.8267L90.4702 18.7273H91.1286L91.7678 21.12H91.7997L92.4368 18.7273H93.0952L92.1342 22H91.4844L90.8196 19.6371H90.7706L90.1058 22H89.4581ZM94.3368 17.6364V22H93.6998V17.6364H94.3368ZM96.6044 22.0661C96.282 22.0661 96.0043 21.9972 95.7713 21.8594C95.5398 21.7202 95.3608 21.5249 95.2344 21.2734C95.1094 21.0206 95.0469 20.7244 95.0469 20.3849C95.0469 20.0497 95.1094 19.7543 95.2344 19.4986C95.3608 19.2429 95.5369 19.0433 95.7628 18.8999C95.9901 18.7564 96.2557 18.6847 96.5597 18.6847C96.7443 18.6847 96.9233 18.7152 97.0966 18.7763C97.2699 18.8374 97.4254 18.9332 97.5632 19.0639C97.701 19.1946 97.8097 19.3643 97.8892 19.5732C97.9688 19.7805 98.0085 20.0327 98.0085 20.3295V20.5554H95.407V20.0781H97.3842C97.3842 19.9105 97.3501 19.7621 97.282 19.6328C97.2138 19.5021 97.1179 19.3991 96.9943 19.3239C96.8722 19.2486 96.7287 19.2109 96.5639 19.2109C96.3849 19.2109 96.2287 19.255 96.0952 19.343C95.9631 19.4297 95.8608 19.5433 95.7884 19.6839C95.7173 19.8232 95.6818 19.9744 95.6818 20.1378V20.5107C95.6818 20.7294 95.7202 20.9155 95.7969 21.0689C95.875 21.2223 95.9837 21.3395 96.1229 21.4205C96.2621 21.5 96.4247 21.5398 96.6108 21.5398C96.7315 21.5398 96.8416 21.5227 96.9411 21.4886C97.0405 21.4531 97.1264 21.4006 97.1989 21.331C97.2713 21.2614 97.3267 21.1754 97.3651 21.0732L97.968 21.1818C97.9197 21.3594 97.8331 21.5149 97.7081 21.6484C97.5845 21.7805 97.429 21.8835 97.2415 21.9574C97.0554 22.0298 96.843 22.0661 96.6044 22.0661ZM99.9405 22.0639C99.6763 22.0639 99.4405 21.9964 99.2331 21.8615C99.0272 21.7251 98.8652 21.5312 98.7473 21.2798C98.6309 21.027 98.5726 20.7237 98.5726 20.37C98.5726 20.0163 98.6316 19.7138 98.7495 19.4624C98.8688 19.2109 99.0321 19.0185 99.2395 18.8849C99.4469 18.7514 99.682 18.6847 99.9448 18.6847C100.148 18.6847 100.311 18.7188 100.435 18.7869C100.56 18.8537 100.656 18.9318 100.725 19.0213C100.794 19.1108 100.848 19.1896 100.887 19.2578H100.925V17.6364H101.562V22H100.94V21.4908H100.887C100.848 21.5604 100.793 21.6399 100.72 21.7294C100.649 21.8189 100.551 21.897 100.426 21.9638C100.301 22.0305 100.139 22.0639 99.9405 22.0639ZM100.081 21.5206C100.264 21.5206 100.419 21.4723 100.546 21.3757C100.673 21.2777 100.77 21.142 100.835 20.9688C100.902 20.7955 100.936 20.5937 100.936 20.3636C100.936 20.1364 100.903 19.9375 100.838 19.767C100.772 19.5966 100.676 19.4638 100.55 19.3686C100.423 19.2734 100.267 19.2259 100.081 19.2259C99.8894 19.2259 99.7296 19.2756 99.6017 19.375C99.4739 19.4744 99.3773 19.6101 99.312 19.782C99.248 19.9538 99.2161 20.1477 99.2161 20.3636C99.2161 20.5824 99.2488 20.7791 99.3141 20.9538C99.3794 21.1286 99.476 21.267 99.6039 21.3693C99.7331 21.4702 99.8922 21.5206 100.081 21.5206ZM103.843 23.2955C103.583 23.2955 103.36 23.2614 103.172 23.1932C102.986 23.125 102.834 23.0348 102.716 22.9226C102.598 22.8104 102.51 22.6875 102.452 22.554L103 22.3281C103.038 22.3906 103.089 22.4567 103.153 22.5263C103.218 22.5973 103.306 22.6577 103.417 22.7074C103.529 22.7571 103.674 22.782 103.85 22.782C104.091 22.782 104.291 22.723 104.449 22.6051C104.606 22.4886 104.685 22.3026 104.685 22.0469V21.4034H104.645C104.606 21.473 104.551 21.5504 104.478 21.6357C104.407 21.7209 104.309 21.7947 104.184 21.8572C104.059 21.9197 103.897 21.951 103.696 21.951C103.438 21.951 103.205 21.8906 102.998 21.7699C102.792 21.6477 102.628 21.468 102.507 21.2308C102.388 20.9922 102.328 20.6989 102.328 20.3509C102.328 20.0028 102.387 19.7045 102.505 19.456C102.625 19.2074 102.788 19.017 102.995 18.8849C103.203 18.7514 103.438 18.6847 103.701 18.6847C103.904 18.6847 104.068 18.7188 104.193 18.7869C104.318 18.8537 104.415 18.9318 104.485 19.0213C104.556 19.1108 104.61 19.1896 104.649 19.2578H104.696V18.7273H105.32V22.0724C105.32 22.3537 105.255 22.5845 105.124 22.7649C104.993 22.9453 104.816 23.0788 104.593 23.1655C104.372 23.2521 104.122 23.2955 103.843 23.2955ZM103.837 21.4226C104.02 21.4226 104.175 21.38 104.301 21.2947C104.429 21.2081 104.526 21.0845 104.591 20.924C104.658 20.7621 104.691 20.5682 104.691 20.3423C104.691 20.1222 104.659 19.9283 104.593 19.7607C104.528 19.593 104.432 19.4624 104.306 19.3686C104.179 19.2734 104.023 19.2259 103.837 19.2259C103.645 19.2259 103.485 19.2756 103.358 19.375C103.23 19.473 103.133 19.6065 103.068 19.7756C103.004 19.9446 102.972 20.1335 102.972 20.3423C102.972 20.5568 103.005 20.745 103.07 20.907C103.135 21.0689 103.232 21.1953 103.36 21.2862C103.489 21.3771 103.648 21.4226 103.837 21.4226ZM107.585 22.0661C107.262 22.0661 106.985 21.9972 106.752 21.8594C106.52 21.7202 106.341 21.5249 106.215 21.2734C106.09 21.0206 106.027 20.7244 106.027 20.3849C106.027 20.0497 106.09 19.7543 106.215 19.4986C106.341 19.2429 106.517 19.0433 106.743 18.8999C106.971 18.7564 107.236 18.6847 107.54 18.6847C107.725 18.6847 107.904 18.7152 108.077 18.7763C108.25 18.8374 108.406 18.9332 108.544 19.0639C108.681 19.1946 108.79 19.3643 108.87 19.5732C108.949 19.7805 108.989 20.0327 108.989 20.3295V20.5554H106.387V20.0781H108.365C108.365 19.9105 108.331 19.7621 108.262 19.6328C108.194 19.5021 108.098 19.3991 107.975 19.3239C107.853 19.2486 107.709 19.2109 107.544 19.2109C107.365 19.2109 107.209 19.255 107.076 19.343C106.944 19.4297 106.841 19.5433 106.769 19.6839C106.698 19.8232 106.662 19.9744 106.662 20.1378V20.5107C106.662 20.7294 106.701 20.9155 106.777 21.0689C106.855 21.2223 106.964 21.3395 107.103 21.4205C107.243 21.5 107.405 21.5398 107.591 21.5398C107.712 21.5398 107.822 21.5227 107.922 21.4886C108.021 21.4531 108.107 21.4006 108.179 21.331C108.252 21.2614 108.307 21.1754 108.346 21.0732L108.949 21.1818C108.9 21.3594 108.814 21.5149 108.689 21.6484C108.565 21.7805 108.409 21.8835 108.222 21.9574C108.036 22.0298 107.824 22.0661 107.585 22.0661ZM111.335 22V17.6364H111.972V19.2578H112.01C112.047 19.1896 112.1 19.1108 112.17 19.0213C112.24 18.9318 112.336 18.8537 112.46 18.7869C112.583 18.7188 112.747 18.6847 112.95 18.6847C113.214 18.6847 113.45 18.7514 113.657 18.8849C113.865 19.0185 114.027 19.2109 114.145 19.4624C114.265 19.7138 114.324 20.0163 114.324 20.37C114.324 20.7237 114.265 21.027 114.147 21.2798C114.029 21.5312 113.868 21.7251 113.662 21.8615C113.456 21.9964 113.221 22.0639 112.956 22.0639C112.757 22.0639 112.595 22.0305 112.468 21.9638C112.343 21.897 112.245 21.8189 112.174 21.7294C112.103 21.6399 112.049 21.5604 112.01 21.4908H111.957V22H111.335ZM111.959 20.3636C111.959 20.5937 111.993 20.7955 112.059 20.9688C112.126 21.142 112.223 21.2777 112.349 21.3757C112.475 21.4723 112.63 21.5206 112.814 21.5206C113.004 21.5206 113.163 21.4702 113.291 21.3693C113.419 21.267 113.515 21.1286 113.581 20.9538C113.647 20.7791 113.681 20.5824 113.681 20.3636C113.681 20.1477 113.648 19.9538 113.583 19.782C113.519 19.6101 113.422 19.4744 113.293 19.375C113.165 19.2756 113.005 19.2259 112.814 19.2259C112.629 19.2259 112.473 19.2734 112.345 19.3686C112.218 19.4638 112.123 19.5966 112.057 19.767C111.992 19.9375 111.959 20.1364 111.959 20.3636ZM115.992 22.0724C115.785 22.0724 115.597 22.0341 115.43 21.9574C115.262 21.8793 115.129 21.7663 115.031 21.6186C114.934 21.4709 114.886 21.2898 114.886 21.0753C114.886 20.8906 114.922 20.7386 114.993 20.6193C115.064 20.5 115.16 20.4055 115.28 20.3359C115.401 20.2663 115.536 20.2138 115.685 20.1783C115.834 20.1428 115.986 20.1158 116.141 20.0973C116.337 20.0746 116.496 20.0561 116.618 20.0419C116.741 20.0263 116.829 20.0014 116.885 19.9673C116.94 19.9332 116.968 19.8778 116.968 19.8011V19.7862C116.968 19.6001 116.915 19.456 116.81 19.3537C116.706 19.2514 116.552 19.2003 116.346 19.2003C116.131 19.2003 115.962 19.2479 115.839 19.343C115.716 19.4368 115.632 19.5412 115.585 19.6562L114.986 19.5199C115.057 19.321 115.161 19.1605 115.297 19.0384C115.435 18.9148 115.594 18.8253 115.773 18.7699C115.952 18.7131 116.14 18.6847 116.337 18.6847C116.468 18.6847 116.606 18.7003 116.753 18.7315C116.9 18.7614 117.038 18.8168 117.166 18.8977C117.295 18.9787 117.401 19.0945 117.483 19.245C117.566 19.3942 117.607 19.5881 117.607 19.8267V22H116.985V21.5526H116.959C116.918 21.6349 116.856 21.7159 116.774 21.7955C116.692 21.875 116.586 21.9411 116.456 21.9936C116.327 22.0462 116.172 22.0724 115.992 22.0724ZM116.131 21.5611C116.307 21.5611 116.457 21.5263 116.582 21.4567C116.709 21.3871 116.805 21.2962 116.87 21.1839C116.937 21.0703 116.97 20.9489 116.97 20.8196V20.3977C116.947 20.4205 116.903 20.4418 116.838 20.4616C116.774 20.4801 116.701 20.4964 116.618 20.5107C116.536 20.5234 116.456 20.5355 116.378 20.5469C116.3 20.5568 116.234 20.5653 116.182 20.5724C116.058 20.5881 115.945 20.6143 115.843 20.6513C115.742 20.6882 115.661 20.7415 115.6 20.8111C115.54 20.8793 115.51 20.9702 115.51 21.0838C115.51 21.2415 115.569 21.3608 115.685 21.4418C115.802 21.5213 115.95 21.5611 116.131 21.5611ZM120.908 19.5263L120.331 19.6286C120.306 19.5547 120.268 19.4844 120.216 19.4176C120.164 19.3509 120.095 19.2962 120.007 19.2536C119.919 19.2109 119.809 19.1896 119.676 19.1896C119.496 19.1896 119.346 19.2301 119.225 19.3111C119.104 19.3906 119.044 19.4936 119.044 19.62C119.044 19.7294 119.084 19.8175 119.165 19.8842C119.246 19.951 119.377 20.0057 119.557 20.0483L120.077 20.1676C120.378 20.2372 120.603 20.3445 120.75 20.4893C120.898 20.6342 120.972 20.8224 120.972 21.054C120.972 21.25 120.915 21.4247 120.801 21.5781C120.689 21.7301 120.532 21.8494 120.331 21.9361C120.13 22.0227 119.898 22.0661 119.634 22.0661C119.267 22.0661 118.968 21.9879 118.737 21.8317C118.505 21.674 118.363 21.4503 118.311 21.1605L118.926 21.0668C118.965 21.2273 119.044 21.3487 119.163 21.4311C119.282 21.5121 119.438 21.5526 119.63 21.5526C119.838 21.5526 120.005 21.5092 120.13 21.4226C120.255 21.3345 120.318 21.2273 120.318 21.1009C120.318 20.9986 120.279 20.9126 120.203 20.843C120.127 20.7734 120.012 20.7209 119.855 20.6854L119.301 20.5639C118.996 20.4943 118.77 20.3835 118.624 20.2315C118.479 20.0795 118.407 19.8871 118.407 19.6541C118.407 19.4609 118.461 19.2919 118.569 19.147C118.676 19.0021 118.826 18.8892 119.016 18.8082C119.206 18.7259 119.424 18.6847 119.67 18.6847C120.024 18.6847 120.302 18.7614 120.505 18.9148C120.708 19.0668 120.843 19.2706 120.908 19.5263ZM123.083 22.0661C122.76 22.0661 122.483 21.9972 122.25 21.8594C122.018 21.7202 121.839 21.5249 121.713 21.2734C121.588 21.0206 121.525 20.7244 121.525 20.3849C121.525 20.0497 121.588 19.7543 121.713 19.4986C121.839 19.2429 122.015 19.0433 122.241 18.8999C122.469 18.7564 122.734 18.6847 123.038 18.6847C123.223 18.6847 123.402 18.7152 123.575 18.7763C123.748 18.8374 123.904 18.9332 124.042 19.0639C124.18 19.1946 124.288 19.3643 124.368 19.5732C124.447 19.7805 124.487 20.0327 124.487 20.3295V20.5554H121.885V20.0781H123.863C123.863 19.9105 123.829 19.7621 123.76 19.6328C123.692 19.5021 123.596 19.3991 123.473 19.3239C123.351 19.2486 123.207 19.2109 123.042 19.2109C122.863 19.2109 122.707 19.255 122.574 19.343C122.442 19.4297 122.339 19.5433 122.267 19.6839C122.196 19.8232 122.16 19.9744 122.16 20.1378V20.5107C122.16 20.7294 122.199 20.9155 122.275 21.0689C122.354 21.2223 122.462 21.3395 122.601 21.4205C122.741 21.5 122.903 21.5398 123.089 21.5398C123.21 21.5398 123.32 21.5227 123.42 21.4886C123.519 21.4531 123.605 21.4006 123.677 21.331C123.75 21.2614 123.805 21.1754 123.844 21.0732L124.447 21.1818C124.398 21.3594 124.312 21.5149 124.187 21.6484C124.063 21.7805 123.907 21.8835 123.72 21.9574C123.534 22.0298 123.322 22.0661 123.083 22.0661Z" fill="#203040"/>
<rect x="50" y="55" width="104" height="20" rx="5" fill="white"/>
<path d="M56.15 68.75C55.9 68.75 55.6875 68.6625 55.5125 68.4875C55.3375 68.3125 55.25 68.1 55.25 67.85V62.35C55.25 62.0917 55.3375 61.875 55.5125 61.7C55.6875 61.525 55.9 61.4375 56.15 61.4375H58.8125C58.9375 61.4375 59.0563 61.4625 59.169 61.5125C59.2813 61.5625 59.375 61.625 59.45 61.7L60 62.25H63.85C64.1 62.25 64.3125 62.3375 64.4875 62.5125C64.6625 62.6875 64.75 62.9 64.75 63.15V67.85C64.75 68.1 64.6625 68.3125 64.4875 68.4875C64.3125 68.6625 64.1 68.75 63.85 68.75H56.15ZM56 62.35V67.85C56 67.8917 56.0147 67.9272 56.044 67.9565C56.073 67.9855 56.1083 68 56.15 68H63.85C63.8917 68 63.9272 67.9855 63.9565 67.9565C63.9855 67.9272 64 67.8917 64 67.85V63.15C64 63.1083 63.9855 63.0728 63.9565 63.0435C63.9272 63.0145 63.8917 63 63.85 63H59.6875L58.925 62.2375C58.9083 62.2208 58.8917 62.2083 58.875 62.2C58.8583 62.1917 58.8417 62.1875 58.825 62.1875H56.15C56.1083 62.1875 56.073 62.2022 56.044 62.2315C56.0147 62.2605 56 62.3 56 62.35ZM56 62.35V62.1875V68V67.85V62.35Z" fill="#2998FF"/>
<rect x="72" y="63" width="48" height="4" rx="2" fill="#F0F1F2"/>
<rect x="50" y="75" width="104" height="20" rx="5" fill="white"/>
<path d="M56.15 81.25L57.025 83H58.525L57.65 81.25H58.65L59.525 83H61.025L60.15 81.25H61.15L62.025 83H63.525L62.65 81.25H63.85C64.1 81.25 64.3125 81.3375 64.4875 81.5125C64.6625 81.6875 64.75 81.9 64.75 82.15V87.85C64.75 88.1 64.6625 88.3125 64.4875 88.4875C64.3125 88.6625 64.1 88.75 63.85 88.75H56.15C55.9 88.75 55.6875 88.6625 55.5125 88.4875C55.3375 88.3125 55.25 88.1 55.25 87.85V82.15C55.25 81.9 55.3375 81.6875 55.5125 81.5125C55.6875 81.3375 55.9 81.25 56.15 81.25ZM56 83.75V87.85C56 87.8917 56.0147 87.9272 56.044 87.9565C56.073 87.9855 56.1083 88 56.15 88H63.85C63.8917 88 63.9272 87.9855 63.9565 87.9565C63.9855 87.9272 64 87.8917 64 87.85V83.75H56ZM56 83.75V88V87.85V83.75Z" fill="#FF6E42"/>
<rect x="72" y="83" width="56" height="4" rx="2" fill="#F0F1F2"/>
<rect x="50" y="95" width="104" height="20" rx="5" fill="white"/>
<path d="M59.0125 109.2C58.5291 109.2 58.1166 109.029 57.775 108.687C57.4333 108.346 57.2625 107.933 57.2625 107.45C57.2625 106.967 57.4333 106.554 57.775 106.212C58.1166 105.871 58.5291 105.7 59.0125 105.7C59.2041 105.7 59.3833 105.729 59.55 105.787C59.7166 105.846 59.8708 105.933 60.0125 106.05V101.7C60.0125 101.45 60.102 101.237 60.281 101.062C60.4603 100.887 60.6708 100.8 60.9125 100.8H61.9125C62.1375 100.8 62.3313 100.879 62.494 101.037C62.6563 101.196 62.7375 101.387 62.7375 101.612C62.7375 101.837 62.6563 102.031 62.494 102.193C62.3313 102.356 62.1375 102.437 61.9125 102.437H60.7625V107.45C60.7625 107.933 60.5916 108.346 60.25 108.687C59.9083 109.029 59.4958 109.2 59.0125 109.2Z" fill="#F52C68"/>
<rect x="72" y="103" width="32" height="4" rx="2" fill="#F0F1F2"/>
<rect x="50" y="115" width="104" height="20" rx="5" fill="white"/>
<path d="M57.8375 127.375H62.2C62.3 127.375 62.3708 127.333 62.4125 127.25C62.4542 127.167 62.4458 127.083 62.3875 127L61.2 125.425C61.15 125.358 61.0875 125.325 61.0125 125.325C60.9375 125.325 60.8792 125.358 60.8375 125.425L59.6125 127.012L58.8 125.963C58.75 125.904 58.6875 125.875 58.6125 125.875C58.5375 125.875 58.4792 125.908 58.4375 125.975L57.65 127C57.5917 127.083 57.5855 127.167 57.6315 127.25C57.6772 127.333 57.7458 127.375 57.8375 127.375ZM56.65 129.25C56.4 129.25 56.1875 129.163 56.0125 128.988C55.8375 128.812 55.75 128.6 55.75 128.35V121.65C55.75 121.4 55.8375 121.188 56.0125 121.013C56.1875 120.838 56.4 120.75 56.65 120.75H63.35C63.6 120.75 63.8125 120.838 63.9875 121.013C64.1625 121.188 64.25 121.4 64.25 121.65V128.35C64.25 128.6 64.1625 128.812 63.9875 128.988C63.8125 129.163 63.6 129.25 63.35 129.25H56.65ZM56.65 128.5H63.35C63.3833 128.5 63.4167 128.483 63.45 128.45C63.4833 128.417 63.5 128.383 63.5 128.35V121.65C63.5 121.617 63.4833 121.583 63.45 121.55C63.4167 121.517 63.3833 121.5 63.35 121.5H56.65C56.6167 121.5 56.5833 121.517 56.55 121.55C56.5167 121.583 56.5 121.617 56.5 121.65V128.35C56.5 128.383 56.5167 128.417 56.55 128.45C56.5833 128.483 56.6167 128.5 56.65 128.5ZM56.5 121.5V128.5V121.5Z" fill="#32BF90"/>
<rect x="72" y="123" width="56" height="4" rx="2" fill="#F0F1F2"/>
<rect x="50" y="29" width="104" height="20" rx="5" fill="#F6F7F7"/>
<path d="M60.8604 38.2827C60.8376 38.081 60.7439 37.9247 60.5791 37.8139C60.4143 37.7017 60.2069 37.6456 59.9569 37.6456C59.778 37.6456 59.6231 37.674 59.4925 37.7308C59.3618 37.7862 59.2602 37.8629 59.1878 37.9609C59.1167 38.0575 59.0812 38.1676 59.0812 38.2912C59.0812 38.3949 59.1054 38.4844 59.1537 38.5597C59.2034 38.6349 59.268 38.6982 59.3476 38.7493C59.4285 38.799 59.5152 38.8409 59.6075 38.875C59.6998 38.9077 59.7886 38.9347 59.8738 38.956L60.3 39.0668C60.4392 39.1009 60.5819 39.147 60.7282 39.2053C60.8746 39.2635 61.0102 39.3402 61.1352 39.4354C61.2602 39.5305 61.3611 39.6484 61.4378 39.7891C61.5159 39.9297 61.555 40.098 61.555 40.294C61.555 40.5412 61.491 40.7607 61.3632 40.9524C61.2368 41.1442 61.0528 41.2955 60.8113 41.4062C60.5713 41.517 60.2808 41.5724 59.9399 41.5724C59.6132 41.5724 59.3305 41.5206 59.0919 41.4169C58.8532 41.3132 58.6665 41.1662 58.5315 40.9759C58.3966 40.7841 58.322 40.5568 58.3078 40.294H58.9683C58.9811 40.4517 59.0322 40.5831 59.1217 40.6882C59.2126 40.7919 59.3284 40.8693 59.469 40.9205C59.6111 40.9702 59.7666 40.995 59.9356 40.995C60.1217 40.995 60.2872 40.9659 60.4321 40.9077C60.5784 40.848 60.6934 40.7656 60.7773 40.6605C60.8611 40.554 60.903 40.4297 60.903 40.2876C60.903 40.1584 60.866 40.0526 60.7922 39.9702C60.7197 39.8878 60.621 39.8196 60.496 39.7656C60.3724 39.7116 60.2325 39.6641 60.0763 39.6229L59.5606 39.4822C59.2112 39.3871 58.9342 39.2472 58.7297 39.0625C58.5265 38.8778 58.425 38.6335 58.425 38.3295C58.425 38.0781 58.4932 37.8587 58.6295 37.6712C58.7659 37.4837 58.9506 37.3381 59.1835 37.2344C59.4165 37.1293 59.6792 37.0767 59.9719 37.0767C60.2673 37.0767 60.528 37.1286 60.7538 37.2322C60.9811 37.3359 61.1601 37.4787 61.2907 37.6605C61.4214 37.8409 61.4896 38.0483 61.4953 38.2827H60.8604ZM63.7011 41.5661C63.3786 41.5661 63.1009 41.4972 62.868 41.3594C62.6365 41.2202 62.4575 41.0249 62.3311 40.7734C62.2061 40.5206 62.1436 40.2244 62.1436 39.8849C62.1436 39.5497 62.2061 39.2543 62.3311 38.9986C62.4575 38.7429 62.6336 38.5433 62.8595 38.3999C63.0867 38.2564 63.3524 38.1847 63.6563 38.1847C63.841 38.1847 64.02 38.2152 64.1933 38.2763C64.3666 38.3374 64.5221 38.4332 64.6599 38.5639C64.7977 38.6946 64.9063 38.8643 64.9859 39.0732C65.0654 39.2805 65.1052 39.5327 65.1052 39.8295V40.0554H62.5036V39.5781H64.4809C64.4809 39.4105 64.4468 39.2621 64.3786 39.1328C64.3105 39.0021 64.2146 38.8991 64.091 38.8239C63.9688 38.7486 63.8254 38.7109 63.6606 38.7109C63.4816 38.7109 63.3254 38.755 63.1919 38.843C63.0597 38.9297 62.9575 39.0433 62.885 39.1839C62.814 39.3232 62.7785 39.4744 62.7785 39.6378V40.0107C62.7785 40.2294 62.8169 40.4155 62.8936 40.5689C62.9717 40.7223 63.0803 40.8395 63.2195 40.9205C63.3588 41 63.5214 41.0398 63.7075 41.0398C63.8282 41.0398 63.9383 41.0227 64.0377 40.9886C64.1372 40.9531 64.2231 40.9006 64.2955 40.831C64.368 40.7614 64.4234 40.6754 64.4617 40.5732L65.0647 40.6818C65.0164 40.8594 64.9298 41.0149 64.8048 41.1484C64.6812 41.2805 64.5257 41.3835 64.3382 41.4574C64.1521 41.5298 63.9397 41.5661 63.7011 41.5661ZM66.7645 41.5724C66.5571 41.5724 66.3696 41.5341 66.202 41.4574C66.0344 41.3793 65.9015 41.2663 65.8035 41.1186C65.7069 40.9709 65.6586 40.7898 65.6586 40.5753C65.6586 40.3906 65.6942 40.2386 65.7652 40.1193C65.8362 40 65.9321 39.9055 66.0528 39.8359C66.1736 39.7663 66.3085 39.7138 66.4577 39.6783C66.6068 39.6428 66.7588 39.6158 66.9136 39.5973C67.1096 39.5746 67.2687 39.5561 67.3909 39.5419C67.5131 39.5263 67.6018 39.5014 67.6572 39.4673C67.7126 39.4332 67.7403 39.3778 67.7403 39.3011V39.2862C67.7403 39.1001 67.6878 38.956 67.5827 38.8537C67.479 38.7514 67.3241 38.7003 67.1182 38.7003C66.9037 38.7003 66.7346 38.7479 66.6111 38.843C66.4889 38.9368 66.4044 39.0412 66.3575 39.1562L65.7588 39.0199C65.8298 38.821 65.9335 38.6605 66.0699 38.5384C66.2077 38.4148 66.366 38.3253 66.545 38.2699C66.724 38.2131 66.9122 38.1847 67.1096 38.1847C67.2403 38.1847 67.3788 38.2003 67.5251 38.2315C67.6729 38.2614 67.8106 38.3168 67.9385 38.3977C68.0677 38.4787 68.1736 38.5945 68.2559 38.745C68.3383 38.8942 68.3795 39.0881 68.3795 39.3267V41.5H67.7574V41.0526H67.7318C67.6906 41.1349 67.6288 41.2159 67.5464 41.2955C67.464 41.375 67.3582 41.4411 67.229 41.4936C67.0997 41.5462 66.9449 41.5724 66.7645 41.5724ZM66.903 41.0611C67.0791 41.0611 67.2297 41.0263 67.3547 40.9567C67.4811 40.8871 67.577 40.7962 67.6423 40.6839C67.7091 40.5703 67.7425 40.4489 67.7425 40.3196V39.8977C67.7197 39.9205 67.6757 39.9418 67.6104 39.9616C67.5464 39.9801 67.4733 39.9964 67.3909 40.0107C67.3085 40.0234 67.2282 40.0355 67.1501 40.0469C67.072 40.0568 67.0067 40.0653 66.9541 40.0724C66.8305 40.0881 66.7176 40.1143 66.6153 40.1513C66.5145 40.1882 66.4335 40.2415 66.3724 40.3111C66.3128 40.3793 66.2829 40.4702 66.2829 40.5838C66.2829 40.7415 66.3412 40.8608 66.4577 40.9418C66.5741 41.0213 66.7226 41.0611 66.903 41.0611ZM69.2281 41.5V38.2273H69.8438V38.7472H69.8779C69.9376 38.571 70.0427 38.4325 70.1933 38.3317C70.3453 38.2294 70.5171 38.1783 70.7089 38.1783C70.7487 38.1783 70.7955 38.1797 70.8495 38.1825C70.9049 38.1854 70.9482 38.1889 70.9795 38.1932V38.8026C70.9539 38.7955 70.9085 38.7876 70.8431 38.7791C70.7778 38.7692 70.7124 38.7642 70.6471 38.7642C70.4965 38.7642 70.3623 38.7962 70.2444 38.8601C70.1279 38.9226 70.0356 39.0099 69.9674 39.1222C69.8992 39.233 69.8651 39.3594 69.8651 39.5014V41.5H69.2281ZM72.7922 41.5661C72.4754 41.5661 72.2027 41.4943 71.974 41.3509C71.7467 41.206 71.572 41.0064 71.4498 40.7521C71.3277 40.4979 71.2666 40.2067 71.2666 39.8786C71.2666 39.5462 71.3291 39.2528 71.4541 38.9986C71.5791 38.7429 71.7552 38.5433 71.9825 38.3999C72.2098 38.2564 72.4775 38.1847 72.7858 38.1847C73.0344 38.1847 73.2559 38.2308 73.4506 38.3232C73.6452 38.4141 73.8021 38.5419 73.9214 38.7067C74.0422 38.8714 74.1139 39.0639 74.1366 39.2841H73.5166C73.4825 39.1307 73.4044 38.9986 73.2822 38.8878C73.1615 38.777 72.9996 38.7216 72.7964 38.7216C72.6189 38.7216 72.4633 38.7685 72.3298 38.8622C72.1977 38.9545 72.0947 39.0866 72.0209 39.2585C71.947 39.429 71.9101 39.6307 71.9101 39.8636C71.9101 40.1023 71.9463 40.3082 72.0187 40.4815C72.0912 40.6548 72.1934 40.7891 72.3256 40.8842C72.4591 40.9794 72.616 41.027 72.7964 41.027C72.9172 41.027 73.0265 41.005 73.1246 40.9609C73.224 40.9155 73.3071 40.8509 73.3738 40.767C73.442 40.6832 73.4896 40.5824 73.5166 40.4645H74.1366C74.1139 40.6761 74.045 40.8651 73.93 41.0312C73.8149 41.1974 73.6608 41.3281 73.4676 41.4233C73.2758 41.5185 73.0507 41.5661 72.7922 41.5661ZM75.455 39.5568V41.5H74.8179V37.1364H75.4465V38.7599H75.4869C75.5637 38.5838 75.6808 38.4439 75.8385 38.3402C75.9962 38.2365 76.2021 38.1847 76.4564 38.1847C76.6808 38.1847 76.8769 38.2308 77.0445 38.3232C77.2135 38.4155 77.3442 38.5533 77.4365 38.7365C77.5303 38.9183 77.5771 39.1456 77.5771 39.4183V41.5H76.9401V39.495C76.9401 39.255 76.8783 39.0689 76.7547 38.9368C76.6311 38.8033 76.4593 38.7365 76.2391 38.7365C76.0885 38.7365 75.9536 38.7685 75.8343 38.8324C75.7164 38.8963 75.6233 38.9901 75.5551 39.1136C75.4884 39.2358 75.455 39.3835 75.455 39.5568Z" fill="#8B939C"/>
<path d="M147.513 43.025L144.625 40.15C144.375 40.3583 144.088 40.5208 143.763 40.6375C143.438 40.7542 143.104 40.8125 142.763 40.8125C141.904 40.8125 141.179 40.5167 140.588 39.925C139.996 39.3333 139.7 38.6083 139.7 37.75C139.7 36.9 139.996 36.177 140.588 35.581C141.179 34.9853 141.904 34.6875 142.763 34.6875C143.613 34.6875 144.333 34.9833 144.925 35.575C145.517 36.1667 145.813 36.8917 145.813 37.75C145.813 38.1083 145.754 38.45 145.638 38.775C145.521 39.1 145.363 39.3833 145.163 39.625L148.05 42.5125C148.117 42.5792 148.15 42.6625 148.15 42.7625C148.15 42.8625 148.113 42.95 148.038 43.025C147.963 43.1 147.873 43.1375 147.769 43.1375C147.665 43.1375 147.579 43.1 147.513 43.025ZM142.763 40.0625C143.404 40.0625 143.948 39.8375 144.394 39.3875C144.84 38.9375 145.063 38.3917 145.063 37.75C145.063 37.1083 144.84 36.5625 144.394 36.1125C143.948 35.6625 143.404 35.4375 142.763 35.4375C142.113 35.4375 141.565 35.6625 141.119 36.1125C140.673 36.5625 140.45 37.1083 140.45 37.75C140.45 38.3917 140.673 38.9375 141.119 39.3875C141.565 39.8375 142.113 40.0625 142.763 40.0625Z" fill="#8B939C"/>
<rect x="204" y="76" width="80" height="204" transform="rotate(90 204 76)" fill="url(#paint0_linear_332_3964)"/>
<path d="M78 4H126H122.225C120.383 4 118.829 5.37188 118.6 7.2C118.257 9.94218 115.926 12 113.163 12H90.8374C88.0738 12 85.7428 9.94218 85.4 7.2C85.1715 5.37188 83.6174 4 81.7751 4H78Z" fill="#DBDEE0"/>
</g>
<defs>
<linearGradient id="paint0_linear_332_3964" x1="284" y1="178" x2="204" y2="178" gradientUnits="userSpaceOnUse">
<stop offset="0.15625" stop-color="#F6F7F7"/>
<stop offset="1" stop-color="#F6F7F7" stop-opacity="0"/>
</linearGradient>
<clipPath id="clip0_332_3964">
<rect width="204" height="156" fill="white"/>
</clipPath>
</defs>
</svg>
