<svg width="204" height="156" viewBox="0 0 204 156" fill="none" xmlns="http://www.w3.org/2000/svg">
<rect x="106" y="10" width="40" height="40" rx="10" fill="white"/>
<path d="M118.3 22.5L120.05 26H123.05L121.3 22.5H123.3L125.05 26H128.05L126.3 22.5H128.3L130.05 26H133.05L131.3 22.5H133.7C134.2 22.5 134.625 22.675 134.975 23.025C135.325 23.375 135.5 23.8 135.5 24.3V35.7C135.5 36.2 135.325 36.625 134.975 36.975C134.625 37.325 134.2 37.5 133.7 37.5H118.3C117.8 37.5 117.375 37.325 117.025 36.975C116.675 36.625 116.5 36.2 116.5 35.7V24.3C116.5 23.8 116.675 23.375 117.025 23.025C117.375 22.675 117.8 22.5 118.3 22.5ZM118 27.5V35.7C118 35.7833 118.029 35.8543 118.088 35.913C118.146 35.971 118.217 36 118.3 36H133.7C133.783 36 133.854 35.971 133.913 35.913C133.971 35.8543 134 35.7833 134 35.7V27.5H118ZM118 27.5V36V35.7V27.5Z" fill="#FF6E42"/>
<rect x="58" y="10" width="40" height="40" rx="10" fill="white"/>
<path d="M70.3 37.5C69.8 37.5 69.375 37.325 69.025 36.975C68.675 36.625 68.5 36.2 68.5 35.7V24.7C68.5 24.1833 68.675 23.75 69.025 23.4C69.375 23.05 69.8 22.875 70.3 22.875H75.625C75.875 22.875 76.1127 22.925 76.338 23.025C76.5627 23.125 76.75 23.25 76.9 23.4L78 24.5H85.7C86.2 24.5 86.625 24.675 86.975 25.025C87.325 25.375 87.5 25.8 87.5 26.3V35.7C87.5 36.2 87.325 36.625 86.975 36.975C86.625 37.325 86.2 37.5 85.7 37.5H70.3ZM70 24.7V35.7C70 35.7833 70.0293 35.8543 70.088 35.913C70.146 35.971 70.2167 36 70.3 36H85.7C85.7833 36 85.8543 35.971 85.913 35.913C85.971 35.8543 86 35.7833 86 35.7V26.3C86 26.2167 85.971 26.1457 85.913 26.087C85.8543 26.029 85.7833 26 85.7 26H77.375L75.85 24.475C75.8167 24.4417 75.7833 24.4167 75.75 24.4C75.7167 24.3833 75.6833 24.375 75.65 24.375H70.3C70.2167 24.375 70.146 24.4043 70.088 24.463C70.0293 24.521 70 24.6 70 24.7ZM70 24.7V24.375V36V35.7V24.7Z" fill="#2998FF"/>
<rect x="106" y="106" width="40" height="40" rx="10" fill="white"/>
<path d="M121.675 130.75H130.4C130.6 130.75 130.742 130.667 130.825 130.5C130.908 130.333 130.892 130.167 130.775 130L128.4 126.85C128.3 126.717 128.175 126.65 128.025 126.65C127.875 126.65 127.758 126.717 127.675 126.85L125.225 130.025L123.6 127.925C123.5 127.808 123.375 127.75 123.225 127.75C123.075 127.75 122.958 127.817 122.875 127.95L121.3 130C121.183 130.167 121.171 130.333 121.263 130.5C121.354 130.667 121.492 130.75 121.675 130.75ZM119.3 134.5C118.8 134.5 118.375 134.325 118.025 133.975C117.675 133.625 117.5 133.2 117.5 132.7V119.3C117.5 118.8 117.675 118.375 118.025 118.025C118.375 117.675 118.8 117.5 119.3 117.5H132.7C133.2 117.5 133.625 117.675 133.975 118.025C134.325 118.375 134.5 118.8 134.5 119.3V132.7C134.5 133.2 134.325 133.625 133.975 133.975C133.625 134.325 133.2 134.5 132.7 134.5H119.3ZM119.3 133H132.7C132.767 133 132.833 132.967 132.9 132.9C132.967 132.833 133 132.767 133 132.7V119.3C133 119.233 132.967 119.167 132.9 119.1C132.833 119.033 132.767 119 132.7 119H119.3C119.233 119 119.167 119.033 119.1 119.1C119.033 119.167 119 119.233 119 119.3V132.7C119 132.767 119.033 132.833 119.1 132.9C119.167 132.967 119.233 133 119.3 133ZM119 119V133V119Z" fill="#32BF90"/>
<rect x="34" y="58" width="40" height="40" rx="10" fill="white"/>
<path d="M46.0059 75.1816L47.6706 80.9998H48.8695L49.9746 77.1958H50.0201L51.128 80.9998H52.3269L53.9917 75.1816H52.6479L51.6848 79.2328H51.6337L50.574 75.1816H49.4235L48.361 79.2243H48.3127L47.3496 75.1816H46.0059Z" fill="#227DD1"/>
<path fill-rule="evenodd" clip-rule="evenodd" d="M46 84H49V86C49 87.1046 49.8954 88 51 88H62C63.1046 88 64 87.1046 64 86V70C64 68.8954 63.1046 68 62 68H51C49.8954 68 49 68.8954 49 70V72H46C44.8954 72 44 72.8954 44 74V82C44 83.1046 44.8954 84 46 84ZM51 69.5H62C62.2761 69.5 62.5 69.7239 62.5 70V86C62.5 86.2761 62.2761 86.5 62 86.5H51C50.7239 86.5 50.5 86.2761 50.5 86V84H54C55.1046 84 56 83.1046 56 82V74C56 72.8954 55.1046 72 54 72H50.5V70C50.5 69.7239 50.7239 69.5 51 69.5ZM54 73.5H46C45.7239 73.5 45.5 73.7239 45.5 74V82C45.5 82.2761 45.7239 82.5 46 82.5H54C54.2761 82.5 54.5 82.2761 54.5 82V74C54.5 73.7239 54.2761 73.5 54 73.5Z" fill="#227DD1"/>
<rect x="82" y="58" width="40" height="40" rx="10" fill="white"/>
<path fill-rule="evenodd" clip-rule="evenodd" d="M94.916 75.1816V80.9998H96.1461V79.1135H97.1802C97.6272 79.1135 98.0079 79.0311 98.3223 78.8663C98.6386 78.7015 98.88 78.4714 99.0467 78.176C99.2134 77.8805 99.2967 77.5396 99.2967 77.1532C99.2967 76.7669 99.2143 76.426 99.0495 76.1305C98.8867 75.8332 98.6499 75.6011 98.3393 75.4345C98.0287 75.2659 97.6528 75.1816 97.2115 75.1816H94.916ZM96.1461 78.1277H96.9814C97.2181 78.1277 97.4132 78.0869 97.5666 78.0055C97.7219 77.9222 97.8374 77.8076 97.9132 77.6618C97.9908 77.514 98.0297 77.3445 98.0297 77.1532C98.0297 76.96 97.9908 76.7915 97.9132 76.6475C97.8374 76.5017 97.7219 76.389 97.5666 76.3095C97.4113 76.228 97.2143 76.1873 96.9757 76.1873H96.1461V78.1277Z" fill="#D15A36"/>
<path fill-rule="evenodd" clip-rule="evenodd" d="M103 68C99.7286 68 96.8239 69.5711 94.9995 72H93C91.8954 72 91 72.8954 91 74V82C91 83.1046 91.8954 84 93 84H94.9995C96.8239 86.4289 99.7286 88 103 88C108.523 88 113 83.5228 113 78C113 72.4772 108.523 68 103 68ZM96.9794 84C98.5185 85.5443 100.648 86.5 103 86.5C107.695 86.5 111.5 82.6944 111.5 78C111.5 73.3056 107.695 69.5 103 69.5C100.648 69.5 98.5185 70.4557 96.9794 72H101C102.105 72 103 72.8954 103 74V82C103 83.1046 102.105 84 101 84H96.9794ZM101 73.5H93C92.7239 73.5 92.5 73.7239 92.5 74V82C92.5 82.2761 92.7239 82.5 93 82.5H101C101.276 82.5 101.5 82.2761 101.5 82V74C101.5 73.7239 101.276 73.5 101 73.5Z" fill="#D15A36"/>
<rect x="130" y="58" width="40" height="40" rx="10" fill="white"/>
<path d="M148.025 86.4C147.058 86.4 146.233 86.0583 145.55 85.375C144.867 84.6916 144.525 83.8666 144.525 82.9C144.525 81.9333 144.867 81.1083 145.55 80.425C146.233 79.7416 147.058 79.4 148.025 79.4C148.408 79.4 148.767 79.4583 149.1 79.575C149.433 79.6916 149.742 79.8666 150.025 80.1V71.4C150.025 70.9 150.204 70.475 150.562 70.125C150.921 69.775 151.342 69.6 151.825 69.6H153.825C154.275 69.6 154.663 69.7583 154.988 70.075C155.313 70.3916 155.475 70.775 155.475 71.225C155.475 71.675 155.313 72.0623 154.988 72.387C154.663 72.7123 154.275 72.875 153.825 72.875H151.525V82.9C151.525 83.8666 151.183 84.6916 150.5 85.375C149.817 86.0583 148.992 86.4 148.025 86.4Z" fill="#F52C68"/>
<rect x="58" y="106" width="40" height="40" rx="10" fill="white"/>
<path fill-rule="evenodd" clip-rule="evenodd" d="M71.025 134.975C71.375 135.325 71.8 135.5 72.3 135.5H83.7C84.2 135.5 84.625 135.325 84.975 134.975C85.325 134.625 85.5 134.2 85.5 133.7V122.5C85.5 122.25 85.4543 122.017 85.363 121.8C85.271 121.583 85.1417 121.392 84.975 121.225L80.775 117.025C80.6083 116.858 80.4167 116.729 80.2 116.637C79.9833 116.546 79.75 116.5 79.5 116.5H72.3C71.8 116.5 71.375 116.675 71.025 117.025C70.675 117.375 70.5 117.8 70.5 118.3V133.7C70.5 134.2 70.675 134.625 71.025 134.975ZM79.5 118V121.6C79.5 121.85 79.5873 122.062 79.762 122.237C79.9373 122.412 80.15 122.5 80.4 122.5H84V133.7C84 133.767 83.9667 133.833 83.9 133.9C83.8333 133.967 83.7667 134 83.7 134H72.3C72.2333 134 72.1667 133.967 72.1 133.9C72.0333 133.833 72 133.767 72 133.7V122.5V118.3C72 118.233 72.0333 118.167 72.1 118.1C72.1667 118.033 72.2333 118 72.3 118H79.5ZM73.7002 130.95H72.8252V126.05H74.8252C75.0752 126.05 75.2835 126.137 75.4502 126.312C75.6169 126.487 75.7002 126.7 75.7002 126.95V128.05C75.7002 128.3 75.6169 128.512 75.4502 128.688C75.2835 128.862 75.0752 128.95 74.8252 128.95H73.7002V130.95ZM78.7002 130.95H76.7252V126.05H78.7002C78.9502 126.05 79.1585 126.137 79.3252 126.312C79.4919 126.487 79.5752 126.7 79.5752 126.95V130.05C79.5752 130.3 79.4919 130.512 79.3252 130.688C79.1585 130.862 78.9502 130.95 78.7002 130.95ZM80.7002 130.95H81.5752V128.95H82.7752V128.05H81.5752V126.95H82.7752V126.05H80.7002V130.95ZM73.7002 128.05V126.95H74.8252V128.05H73.7002ZM77.625 126.95V130.05H78.7V126.95H77.625Z" fill="#F23F3F"/>
</svg>
