<svg xmlns="http://www.w3.org/2000/svg" width="19" height="19" viewBox="0 0 19 19">
    <g fill="none" fill-rule="evenodd">
        <g fill="#3F4648" fill-rule="nonzero">
            <g>
                <path d="M9.216 0C4.135 0 0 4.135 0 9.216c0 1.772.497 3.473 1.438 4.94L.04 17.642c-.085.214-.035.458.128.622.11.11.257.168.407.168.073 0 .144-.014.214-.041l3.486-1.397c1.467.941 3.168 1.438 4.94 1.438 5.081 0 9.216-4.135 9.216-9.216C18.432 4.135 14.297 0 9.216 0zm0 17.28c-1.643 0-3.215-.486-4.546-1.407-.097-.068-.212-.102-.327-.102-.073 0-.145.014-.214.041l-2.519 1.01 1.01-2.519c.071-.18.048-.383-.061-.541-.92-1.33-1.407-2.903-1.407-4.546 0-4.447 3.617-8.064 8.064-8.064s8.064 3.617 8.064 8.064-3.617 8.064-8.064 8.064z" transform="translate(-390 -474) translate(390 474)"/>
                <path d="M9.792 10.008H5.184c-.318 0-.576.258-.576.576 0 .318.258.576.576.576h4.608c.318 0 .576-.258.576-.576 0-.318-.258-.576-.576-.576zM13.248 7.164H5.184c-.318 0-.576.258-.576.576 0 .318.258.576.576.576h8.064c.318 0 .576-.258.576-.576 0-.318-.258-.576-.576-.576z" transform="translate(-390 -474) translate(390 474)"/>
            </g>
        </g>
    </g>
</svg>
