<?xml version="1.0" encoding="UTF-8"?>
<svg width="20px" height="17px" viewBox="0 0 20 17" version="1.1" xmlns="http://www.w3.org/2000/svg" xmlns:xlink="http://www.w3.org/1999/xlink">
    <!-- Generator: Sketch 58 (84663) - https://sketch.com -->
    <title>speech-bubble</title>
    <desc>Created with Sketch.</desc>
    <g id="Launchpad" stroke="none" stroke-width="1" fill="none" fill-rule="evenodd">
        <g id="speech-bubble" fill="#2998FF" fill-rule="nonzero">
            <path d="M16.1142857,9.17105263 L16.1142857,1.85861244 C16.1142857,0.845933014 15.2857143,0.0203349282 14.2693878,0.0203349282 L1.84489796,0.0203349282 C0.828571429,0.0203349282 0,0.845933014 0,1.85861244 L0,9.17105263 C0,10.1837321 0.828571429,11.0093301 1.84489796,11.0093301 L2.37142857,11.0093301 L2.37142857,13.2136364 C2.37142857,13.6203349 2.70204082,13.9497608 3.11428571,13.9497608 L3.11428571,13.9497608 C3.32653061,13.9497608 3.53061224,13.8562201 3.67346939,13.6935407 L6.00408163,11.0052632 L14.2734694,11.0052632 C15.2857143,11.0093301 16.1142857,10.1837321 16.1142857,9.17105263 Z M5.77142857,10.0129187 C5.6244898,10.0129187 5.48979592,10.0739234 5.39183673,10.1837321 L3.36734694,12.5141148 L3.36734694,10.5090909 C3.36734694,10.2325359 3.14285714,10.0088517 2.86530612,10.0088517 L1.84489796,10.0088517 C1.37959184,10.0088517 1,9.63062201 1,9.16698565 L1,1.85861244 C1,1.39497608 1.37959184,1.01674641 1.84489796,1.01674641 L14.2693878,1.01674641 C14.7346939,1.01674641 15.1142857,1.39497608 15.1142857,1.85861244 L15.1142857,9.17105263 C15.1142857,9.634689 14.7346939,10.0129187 14.2693878,10.0129187 L5.77142857,10.0129187 L5.77142857,10.0129187 Z" id="Shape"></path>
            <path d="M16.3142857,16.707177 C16.4571429,16.8739234 16.6612245,16.9633971 16.8693878,16.9633971 C16.955102,16.9633971 17.044898,16.9471292 17.1306122,16.9145933 C17.4244898,16.8047847 17.6122449,16.5363636 17.6122449,16.2232057 L17.6122449,14.0188995 L18.1387755,14.0188995 C19.155102,14.0188995 19.9836735,13.1933014 19.9836735,12.180622 L19.9836735,4.86818182 C19.9836735,3.85550239 19.155102,3.02990431 18.1387755,3.02990431 C17.8612245,3.02990431 17.6367347,3.25358852 17.6367347,3.52607656 C17.6367347,3.80263158 17.8612245,4.02631579 18.1387755,4.02631579 C18.6040816,4.02631579 18.9836735,4.40454545 18.9836735,4.86818182 L18.9836735,12.180622 C18.9836735,12.6442584 18.6040816,13.022488 18.1387755,13.022488 L17.1142857,13.022488 C16.8367347,13.022488 16.6122449,13.2461722 16.6122449,13.5227273 L16.6122449,15.5277512 L14.5877551,13.1973684 C14.4938776,13.0875598 14.355102,13.026555 14.2081633,13.026555 L6.69795918,13.026555 C6.42040816,13.026555 6.19591837,13.2502392 6.19591837,13.5267943 C6.19591837,13.8033493 6.42040816,14.0270335 6.69795918,14.0270335 L13.9795918,14.0270335 L16.3142857,16.707177 Z" id="Shape"></path>
            <ellipse id="Oval" cx="8.05714286" cy="5.68971292" rx="1" ry="1"></ellipse>
            <ellipse id="Oval" cx="10.0530612" cy="5.68971292" rx="1" ry="1"></ellipse>
            <ellipse id="Oval" cx="6.06122449" cy="5.68971292" rx="1" ry="1"></ellipse>
        </g>
    </g>
</svg>