<?xml version="1.0" encoding="UTF-8"?>
<svg width="25px" height="19px" viewBox="0 0 25 19" version="1.1" xmlns="http://www.w3.org/2000/svg" xmlns:xlink="http://www.w3.org/1999/xlink">
    <!-- Generator: Sketch 58 (84663) - https://sketch.com -->
    <title>deprtments-icon@2x</title>
    <desc>Created with Sketch.</desc>
    <g id="Launchpad" stroke="none" stroke-width="1" fill="none" fill-rule="evenodd">
        <g id="deprtments-icon" fill="#2998FF">
            <path d="M3.78692758,14 L0.550585574,14 C0.245561166,14 0,13.775454 0,13.4987812 C0,12.1394757 1.01087511,10.9596065 2.45891518,10.6298045 L4.30998388,10.2097831 L4.41239279,9.83086171 C3.95981145,9.36372575 3.63937065,8.77228752 3.50612894,8.16280541 C3.13943895,8.02647389 2.89167544,7.73777184 2.84322391,7.38792109 L2.71108337,6.42858823 C2.67254238,6.150913 2.7672431,5.87023045 2.97206093,5.6587161 C3.04804174,5.58052596 3.13613543,5.51436507 3.23193732,5.46223831 C3.19780102,5.17353626 3.15926003,4.81566601 3.15926003,4.6292126 C3.15926003,3.72501382 3.44776687,2.5271008 5.90668204,2.45292041 C6.33393645,2.20632074 6.82285644,2.0589624 7.38995958,2.00282589 C7.69388282,1.9737552 7.96477092,2.17223786 7.99670488,2.44790822 C8.02974002,2.72257614 7.81060696,2.97017825 7.50888606,2.99924894 C7.06181058,3.0433562 6.70833464,3.1576341 6.40000672,3.35912407 C6.30860951,3.41927033 6.19739123,3.45235077 6.08507177,3.45335321 C4.26043118,3.46838978 4.26043118,4.05882557 4.26043118,4.6292126 C4.26043118,4.82569039 4.33420964,5.43016031 4.38045883,5.76497449 C4.40027991,5.90832308 4.35182838,6.05066923 4.24721712,6.15993494 C4.14260586,6.26719577 3.99284659,6.3293469 3.83427794,6.3293469 L3.93558569,7.26361882 C4.22299136,7.26361882 4.52361108,7.44506004 4.5456345,7.70669627 C4.59849072,8.30214425 4.91672918,8.90460929 5.39794097,9.31661118 C5.54439673,9.44091345 5.60385998,9.62736686 5.55540845,9.80279345 L5.2977344,10.7440824 C5.2481817,10.9245212 5.09401773,11.06386 4.8969081,11.1089697 L2.72539859,11.6021691 C1.95237645,11.7775957 1.36765457,12.3209169 1.1716461,12.9965599 L3.78692758,12.9975623 C4.09085082,12.9975623 4.33751316,13.2221084 4.33751316,13.4987812 C4.33751316,13.775454 4.09085082,14 3.78692758,14" id="Fill-1"></path>
            <path d="M21.2137538,14 L21.2137538,13 L23.8285647,13 C23.6325915,12.325 23.0479748,11.783 22.2750918,11.608 L20.103973,11.116 C19.9068988,11.071 19.7527626,10.932 19.7032188,10.752 L19.4554999,9.853 C19.4059561,9.673 19.4709135,9.483 19.6228478,9.359 C20.1204876,8.954 20.4606882,8.326 20.5146359,7.721 C20.5377563,7.461 20.7766675,7.261 21.0629205,7.261 L21.1961382,6.324 C21.0475068,6.322 20.9153901,6.277 20.8141006,6.179 C20.7117101,6.08 20.6698731,5.96 20.6775799,5.824 L20.7414363,4.628 C20.7480422,4.504 20.8052928,4.388 20.9010774,4.3 L21.163109,4.061 C21.2412781,3.984 21.3634861,3.867 21.0937477,3.492 C20.8548366,3.161 20.4254571,3 19.7791859,3 C19.3795327,3 19.0360291,3.047 18.7299586,3.143 C18.4415037,3.232 18.1288274,3.094 18.0297398,2.833 C17.9317532,2.571 18.0836875,2.287 18.3710414,2.197 C18.796017,2.064 19.2562237,2 19.7791859,2 C21.0651224,2 21.7047877,2.514 22.0152621,2.944 C22.6626343,3.844 22.2552743,4.465 21.9547086,4.756 L21.8313996,4.869 L21.7961685,5.5 C21.8842463,5.551 21.9657183,5.613 22.0339787,5.686 C22.2343558,5.896 22.3279385,6.173 22.2894044,6.449 L22.1572877,7.403 C22.1099458,7.742 21.8765395,8.022 21.5572574,8.163 C21.4218377,8.799 21.082738,9.411 20.5994108,9.886 L20.6907916,10.219 L22.5415272,10.638 C23.9893068,10.967 25,12.144 25,13.499 C25,13.775 24.754483,13.999 24.4495135,13.999 L21.2137538,14 Z" id="Fill-3"></path>
            <path d="M4.09566667,17.9423333 L20.9043333,17.9444444 C20.6963889,16.5796111 19.6904444,15.4501667 18.3192778,15.1071111 L15.103,14.3038333 C14.913,14.2563333 14.7652222,14.1085556 14.7177222,13.9185556 L14.3852222,12.5864444 C14.3493333,12.4407778 14.3757222,12.2877222 14.4601667,12.1631667 C14.5435556,12.0386111 14.6755,11.9562778 14.8243333,11.9362222 C16.0635556,11.7631111 16.9576111,11.4770556 17.4917222,11.2659444 C16.9671111,10.5038333 16.2630556,8.93422222 16.2630556,5.98922222 C16.2630556,3.35033333 15.7447778,1.83561111 14.8412222,1.83561111 L14.4506667,1.83561111 C14.3102778,1.83561111 14.1762222,1.77966667 14.077,1.6815 C13.5914444,1.19594444 13.4109444,1.05555556 12.5,1.05555556 C11.7537222,1.05555556 8.73588889,1.93377778 8.73588889,5.98922222 C8.73588889,8.93738889 8.03183333,10.507 7.50616667,11.2680556 C8.03816667,11.4791667 8.93011111,11.7641667 10.1746111,11.9383333 C10.3223889,11.9583889 10.4553889,12.0407222 10.5387778,12.1652778 C10.6242778,12.2898333 10.6506667,12.4428889 10.6147778,12.5885556 L10.2812222,13.9185556 C10.2337222,14.1085556 10.087,14.2563333 9.897,14.3038333 L6.68072222,15.1071111 C5.3085,15.4501667 4.30361111,16.5785556 4.09566667,17.9423333 L4.09566667,17.9423333 Z M3.52777778,19 C3.38738889,19 3.25333333,18.9440556 3.15411111,18.8448333 C3.05594444,18.7466667 3,18.6126111 3,18.4722222 C3,16.3917222 4.40811111,14.5867222 6.42527778,14.0832222 L9.33438889,13.3559444 L9.4505,12.8915 C7.446,12.5357778 6.42211111,11.9309444 6.37566667,11.9024444 C6.22577778,11.8116667 6.12972222,11.6522778 6.12127778,11.4770556 C6.11177778,11.3018333 6.19094444,11.134 6.33133333,11.0273889 C6.33766667,11.0221111 7.68033333,9.89055556 7.68033333,5.98922222 C7.68033333,1.50838889 10.9895,0 12.5,0 C13.6452778,0 14.1076111,0.250166667 14.666,0.780055556 L14.8412222,0.780055556 C16.4847222,0.780055556 17.3186111,2.53227778 17.3186111,5.98922222 C17.3186111,9.89055556 18.6623333,11.0221111 18.6760556,11.0337222 C18.8101111,11.1424444 18.8871667,11.3134444 18.8745,11.4855 C18.8618333,11.6586111 18.7689444,11.8158889 18.6211667,11.9045556 C18.5736667,11.932 17.5402778,12.5336667 15.5495,12.8893889 L15.6656111,13.3559444 L18.5747222,14.0832222 C20.5918889,14.5867222 22,16.3906667 22,18.4701111 C22,18.7614444 21.7635556,18.9978889 21.4722222,18.9978889 L3.52777778,19 Z" id="Fill-5"></path>
        </g>
    </g>
</svg>