<svg xmlns="http://www.w3.org/2000/svg" width="20" height="17" viewBox="0 0 20 17">
    <g fill="#2998FF">
        <path d="M17.857 5.058c-.321-.216-.755-.129-.97.195l-.364.553C15.662 2.47 12.653 0 9.083 0 6.025 0 3.259 1.828 2.035 4.657c-.155.357.007.773.36.929.354.156.766-.007.92-.364 1.002-2.315 3.266-3.81 5.768-3.81 2.982 0 5.484 2.106 6.127 4.922l-.848-.57c-.32-.217-.754-.13-.969.195-.214.324-.127.762.194.978l2.093 1.409c.319.215.758.129.973-.193l1.398-2.117c.214-.324.127-.762-.194-.978zM15.794 9.858c-.355-.152-.765.016-.916.375-.987 2.357-3.262 3.879-5.795 3.879-2.983 0-5.485-2.107-6.128-4.923l.848.57c.32.217.755.13.969-.195.214-.324.127-.762-.194-.978L2.486 7.177c-.32-.215-.757-.128-.974.193L.115 9.487c-.273.413-.033.993.452 1.085.24.045.492-.042.654-.228.078-.09.14-.2.205-.3l.216-.326c.861 3.335 3.87 5.805 7.44 5.805 3.097 0 5.878-1.86 7.084-4.74.15-.359-.016-.773-.372-.925z" transform="matrix(1 0 0 -1 .183 16.55)"/>
    </g>
</svg>
