<svg xmlns="http://www.w3.org/2000/svg" width="19" height="19" viewBox="0 0 19 19">
    <path fill="#2998FF" d="M9.63.045c.117 0 .255.037.377.156l7.542 7.543c1.01 1.01 1.068 2.698 0 3.771l-6.034 6.034c-1.01 1.01-2.68 1.068-3.771 0L.2 10.007C.118 9.923.045 9.79.045 9.629V1.645c0-.852.69-1.6 1.6-1.6H9.63zm-.222 1.067H1.645c-.273 0-.533.23-.533.533v7.763l7.386 7.387c.575.575 1.59.672 2.263 0l6.034-6.034c.6-.6.65-1.573 0-2.263L9.408 1.112zM3.595 3.595c.834-.833 2.184-.833 3.017 0 .834.834.834 2.184 0 3.017-.833.834-2.183.834-3.017 0-.833-.833-.833-2.183 0-3.017zm2.263.755c-.416-.417-1.092-.417-1.508 0-.417.416-.417 1.092 0 1.508.416.417 1.092.417 1.508 0 .417-.416.417-1.092 0-1.508z"/>
</svg>
