<svg width="204" height="156" viewBox="0 0 204 156" fill="none" xmlns="http://www.w3.org/2000/svg">
<g clip-path="url(#clip0_662_10043)">
<g filter="url(#filter0_dd_662_10043)">
<rect x="13" y="16" width="106" height="124" rx="10" fill="white" shape-rendering="crispEdges"/>
<path d="M66 32C81.464 32 94 44.536 94 60C94 75.464 81.464 88 66 88C50.536 88 38 75.464 38 60C38 44.536 50.536 32 66 32ZM66 82.4C78.3712 82.4 88.4 72.3712 88.4 60C88.4 47.6288 78.3712 37.6 66 37.6C53.6288 37.6 43.6 47.6288 43.6 60C43.6 72.3712 53.6288 82.4 66 82.4Z" fill="#F0F1F2"/>
<path d="M66 34.8C66 33.2536 67.2568 31.9855 68.7955 32.1399C74.2676 32.6888 79.4799 34.8406 83.763 38.3557C88.7705 42.4653 92.1982 48.184 93.462 54.5375C94.7258 60.8909 93.7475 67.4861 90.6938 73.1991C87.6401 78.9121 82.7 83.3896 76.7151 85.8686C70.7303 88.3476 64.071 88.6748 57.872 86.7943C51.673 84.9139 46.3178 80.9422 42.7188 75.556C39.1199 70.1697 37.4999 63.7023 38.1348 57.2555C38.6779 51.7413 40.842 46.5342 44.3232 42.2766C45.3021 41.0794 47.0875 41.0874 48.1809 42.1809V42.1809C49.2744 43.2744 49.2582 45.0379 48.3096 46.2592C45.729 49.5815 44.1239 53.5804 43.7079 57.8044C43.1999 62.9618 44.4959 68.1358 47.3751 72.4448C50.2542 76.7537 54.5384 79.9311 59.4976 81.4355C64.4568 82.9398 69.7842 82.6781 74.5721 80.6949C79.36 78.7117 83.3121 75.1297 85.755 70.5593C88.198 65.9889 88.9806 60.7128 87.9696 55.63C86.9586 50.5472 84.2164 45.9722 80.2104 42.6846C76.9294 39.9919 72.9668 38.2992 68.7928 37.7747C67.2585 37.5819 66 36.3464 66 34.8V34.8Z" fill="#32BF90"/>
<path d="M55.4531 61.5273C54.5827 61.5273 53.8968 61.2493 53.3955 60.6934C52.8942 60.1283 52.6436 59.3307 52.6436 58.3008C52.6436 57.2708 52.9466 56.446 53.5527 55.8262C54.1634 55.2018 54.9928 54.8896 56.041 54.8896C56.0547 54.8896 56.0684 54.8896 56.082 54.8896C57.1803 54.8896 58.0576 55.277 58.7139 56.0518C59.3701 56.8265 59.6982 57.8724 59.6982 59.1895C59.6982 59.2168 59.6982 59.2441 59.6982 59.2715C59.6982 61.2402 59.2835 62.71 58.4541 63.6807C57.6247 64.6514 56.3691 65.1367 54.6875 65.1367C54.1087 65.1367 53.6598 65.1048 53.3408 65.041V63.3457C53.7236 63.4414 54.1247 63.4893 54.5439 63.4893C55.2458 63.4893 55.8268 63.3867 56.2871 63.1816C56.7474 62.972 57.096 62.6439 57.333 62.1973C57.5745 61.7461 57.7135 61.1354 57.75 60.3652H57.668C57.3991 60.7982 57.0892 61.1012 56.7383 61.2744C56.3919 61.443 55.9635 61.5273 55.4531 61.5273ZM57.1689 57.1455C56.891 56.7718 56.5286 56.585 56.082 56.585C55.64 56.585 55.2959 56.7376 55.0498 57.043C54.8083 57.3438 54.6875 57.7585 54.6875 58.2871C54.6875 58.8158 54.8014 59.2191 55.0293 59.4971C55.2572 59.7705 55.5898 59.9072 56.0273 59.9072C56.4648 59.9072 56.8363 59.7682 57.1416 59.4902C57.4469 59.2122 57.5996 58.8887 57.5996 58.5195C57.5996 57.9818 57.4561 57.5238 57.1689 57.1455ZM64.873 58.5059C65.7663 58.5059 66.4635 58.7861 66.9648 59.3467C67.4753 59.9027 67.7305 60.6979 67.7305 61.7324C67.7305 62.7624 67.4274 63.5872 66.8213 64.207C66.2288 64.8268 65.3971 65.1367 64.3262 65.1367C64.3125 65.1367 64.2988 65.1367 64.2852 65.1367C63.1869 65.1367 62.3096 64.7516 61.6533 63.9814C61.0016 63.2113 60.6758 62.154 60.6758 60.8096C60.6758 60.7913 60.6758 60.7731 60.6758 60.7549C60.6758 58.7816 61.0928 57.3118 61.9268 56.3457C62.7607 55.375 64.014 54.8896 65.6865 54.8896C66.2607 54.8896 66.7074 54.9238 67.0264 54.9922V56.6807C66.6117 56.5895 66.2106 56.5439 65.8232 56.5439C64.4059 56.5439 63.4717 56.9769 63.0205 57.8428C62.7926 58.2848 62.6582 58.8932 62.6172 59.668H62.7061C63.1572 58.8932 63.8796 58.5059 64.873 58.5059ZM65.6865 61.7461C65.6865 61.2174 65.5703 60.8164 65.3379 60.543C65.11 60.265 64.7773 60.126 64.3398 60.126C63.9023 60.126 63.5309 60.265 63.2256 60.543C62.9248 60.8255 62.7744 61.1491 62.7744 61.5137C62.7744 62.0514 62.9157 62.5094 63.1982 62.8877C63.4854 63.2614 63.8499 63.4482 64.292 63.4482C64.7386 63.4482 65.0827 63.2979 65.3242 62.9971C65.5658 62.6917 65.6865 62.2747 65.6865 61.7461ZM70.9775 54.8623C71.7477 54.8623 72.3379 55.1335 72.748 55.6758C73.1628 56.2135 73.3701 56.9951 73.3701 58.0205C73.3701 59.0413 73.1673 59.8161 72.7617 60.3447C72.3607 60.8734 71.7728 61.1377 70.998 61.1377C70.2279 61.1377 69.6377 60.8665 69.2275 60.3242C68.8219 59.7819 68.6191 59.0026 68.6191 57.9863C68.6191 55.9036 69.4053 54.8623 70.9775 54.8623ZM72.5293 65H70.8887L76.4326 55.0059H78.0732L72.5293 65ZM70.9912 56.291C70.7633 56.291 70.597 56.43 70.4922 56.708C70.3919 56.986 70.3418 57.4167 70.3418 58C70.3418 58.5833 70.3919 59.0163 70.4922 59.2988C70.597 59.5814 70.7633 59.7227 70.9912 59.7227C71.4287 59.7227 71.6475 59.1507 71.6475 58.0068C71.6475 56.863 71.4287 56.291 70.9912 56.291ZM77.9775 58.8545C78.7477 58.8545 79.3379 59.1257 79.748 59.668C80.1628 60.2057 80.3701 60.985 80.3701 62.0059C80.3701 63.0267 80.1673 63.8014 79.7617 64.3301C79.3561 64.8587 78.7682 65.123 77.998 65.123C77.2279 65.123 76.6377 64.8519 76.2275 64.3096C75.8219 63.7673 75.6191 62.9902 75.6191 61.9785C75.6191 59.8958 76.4053 58.8545 77.9775 58.8545ZM77.9912 60.2832C77.7633 60.2832 77.597 60.4222 77.4922 60.7002C77.3919 60.9782 77.3418 61.4089 77.3418 61.9922C77.3418 62.5755 77.3919 63.0085 77.4922 63.291C77.597 63.5736 77.7633 63.7148 77.9912 63.7148C78.4287 63.7148 78.6475 63.1429 78.6475 61.999C78.6475 60.8551 78.4287 60.2832 77.9912 60.2832Z" fill="#32BF90"/>
<path d="M42.4648 103.848C41.9596 103.848 41.5586 103.698 41.2617 103.398C40.9648 103.096 40.8164 102.674 40.8164 102.133C40.8164 101.534 40.9818 101.064 41.3125 100.723C41.6432 100.379 42.0807 100.207 42.625 100.207C42.638 100.207 42.651 100.207 42.6641 100.207C43.2292 100.207 43.6836 100.431 44.0273 100.879C44.3737 101.327 44.5469 101.931 44.5469 102.691C44.5469 102.704 44.5469 102.716 44.5469 102.727C44.5469 104.961 43.6823 106.078 41.9531 106.078C41.6536 106.078 41.4141 106.052 41.2344 106V105.441C41.4453 105.509 41.6823 105.543 41.9453 105.543C42.5703 105.543 43.0417 105.35 43.3594 104.965C43.6797 104.577 43.8542 103.983 43.8828 103.184H43.8359C43.6953 103.4 43.5065 103.565 43.2695 103.68C43.0326 103.792 42.7643 103.848 42.4648 103.848ZM42.625 100.762C42.2526 100.762 41.9648 100.882 41.7617 101.121C41.5586 101.358 41.457 101.68 41.457 102.086C41.457 102.492 41.5521 102.801 41.7422 103.012C41.9349 103.223 42.2188 103.328 42.5938 103.328C42.6094 103.328 42.625 103.328 42.6406 103.328C42.9714 103.328 43.2617 103.223 43.5117 103.012C43.7643 102.798 43.8906 102.557 43.8906 102.289C43.8906 102.281 43.8906 102.273 43.8906 102.266C43.8932 101.995 43.8411 101.743 43.7344 101.512C43.6276 101.28 43.4779 101.098 43.2852 100.965C43.0924 100.829 42.8815 100.762 42.6523 100.762C42.6419 100.762 42.6328 100.762 42.625 100.762ZM47.5078 102.441C48.0208 102.441 48.4245 102.596 48.7188 102.906C49.0156 103.214 49.1641 103.634 49.1641 104.168C49.1641 104.762 49.0013 105.229 48.6758 105.57C48.3529 105.909 47.9062 106.078 47.3359 106.078C46.7656 106.078 46.306 105.857 45.957 105.414C45.6107 104.971 45.4375 104.353 45.4375 103.559C45.4375 101.324 46.3008 100.207 48.0273 100.207C48.3268 100.207 48.5586 100.232 48.7227 100.281V100.84C48.5273 100.775 48.2982 100.742 48.0352 100.742C47.418 100.742 46.9492 100.935 46.6289 101.32C46.3086 101.706 46.1328 102.303 46.1016 103.113H46.1484C46.4323 102.665 46.8854 102.441 47.5078 102.441ZM47.3398 102.953C47.0195 102.953 46.7318 103.061 46.4766 103.277C46.2214 103.493 46.0964 103.742 46.1016 104.023C46.099 104.289 46.1497 104.538 46.2539 104.77C46.3607 105.001 46.5091 105.186 46.6992 105.324C46.8919 105.46 47.1016 105.527 47.3281 105.527C47.3385 105.527 47.3477 105.527 47.3555 105.527C47.7279 105.527 48.0156 105.41 48.2188 105.176C48.4219 104.941 48.5234 104.62 48.5234 104.211C48.5234 103.799 48.4271 103.487 48.2344 103.273C48.0417 103.06 47.7591 102.953 47.3867 102.953C47.3711 102.953 47.3555 102.953 47.3398 102.953ZM50.2852 106H49.6367L51.7656 100.289H52.4141L50.2852 106ZM55.2891 106H54.6562V101.93C54.6562 101.609 54.6667 101.289 54.6875 100.969C54.6328 101.026 54.5794 101.077 54.5273 101.121C54.4779 101.165 54.1602 101.426 53.5742 101.902L53.2305 101.457L54.7422 100.289H55.2891V106ZM57.4727 103.117C57.4727 102.138 57.6276 101.408 57.9375 100.926C58.2474 100.441 58.7148 100.199 59.3398 100.199C59.9674 100.199 60.4427 100.451 60.7656 100.953C61.0885 101.453 61.25 102.19 61.25 103.164C61.25 104.135 61.0938 104.865 60.7812 105.352C60.4688 105.836 59.9987 106.078 59.3711 106.078C58.7461 106.078 58.2734 105.829 57.9531 105.332C57.6328 104.832 57.4727 104.094 57.4727 103.117ZM60.293 101.336C60.1003 100.953 59.7891 100.762 59.3594 100.762C58.9297 100.762 58.6172 100.951 58.4219 101.328C58.2266 101.703 58.1289 102.306 58.1289 103.137C58.1289 103.967 58.2266 104.573 58.4219 104.953C58.6172 105.331 58.9297 105.52 59.3594 105.52C59.7891 105.52 60.1003 105.328 60.293 104.945C60.4883 104.56 60.5859 103.957 60.5859 103.137C60.5859 102.316 60.4883 101.716 60.293 101.336ZM62.0508 103.117C62.0508 102.138 62.2057 101.408 62.5156 100.926C62.8255 100.441 63.293 100.199 63.918 100.199C64.5456 100.199 65.0208 100.451 65.3438 100.953C65.6667 101.453 65.8281 102.19 65.8281 103.164C65.8281 104.135 65.6719 104.865 65.3594 105.352C65.0469 105.836 64.5768 106.078 63.9492 106.078C63.3242 106.078 62.8516 105.829 62.5312 105.332C62.2109 104.832 62.0508 104.094 62.0508 103.117ZM64.8711 101.336C64.6784 100.953 64.3672 100.762 63.9375 100.762C63.5078 100.762 63.1953 100.951 63 101.328C62.8047 101.703 62.707 102.306 62.707 103.137C62.707 103.967 62.8047 104.573 63 104.953C63.1953 105.331 63.5078 105.52 63.9375 105.52C64.3672 105.52 64.6784 105.328 64.8711 104.945C65.0664 104.56 65.1641 103.957 65.1641 103.137C65.1641 102.316 65.0664 101.716 64.8711 101.336ZM73.4062 100.289V103.984C73.4062 104.638 73.2083 105.151 72.8125 105.523C72.4193 105.893 71.8802 106.078 71.1953 106.078C70.5104 106.078 69.9779 105.891 69.5977 105.516C69.2227 105.141 69.0352 104.625 69.0352 103.969V100.289H69.6992V104.016C69.6992 104.495 69.8294 104.862 70.0898 105.117C70.3529 105.37 70.7305 105.496 71.2227 105.496C71.7148 105.496 72.0911 105.367 72.3516 105.109C72.612 104.852 72.7422 104.484 72.7422 104.008V100.289H73.4062ZM75.9062 105.543C76.6094 105.543 76.9609 105.324 76.9609 104.887C76.9609 104.72 76.888 104.578 76.7422 104.461C76.599 104.341 76.3177 104.201 75.8984 104.039C75.4974 103.891 75.2122 103.76 75.043 103.648C74.8763 103.536 74.7526 103.411 74.6719 103.273C74.5911 103.135 74.5508 102.967 74.5508 102.77C74.5508 102.423 74.6927 102.148 74.9766 101.945C75.2604 101.742 75.6406 101.641 76.1172 101.641C76.5938 101.641 77.0534 101.734 77.4961 101.922L77.2656 102.449C76.8385 102.275 76.4609 102.188 76.1328 102.188C75.8073 102.188 75.5651 102.234 75.4062 102.328C75.2474 102.422 75.168 102.555 75.168 102.727C75.168 102.841 75.1966 102.939 75.2539 103.02C75.3112 103.1 75.4049 103.177 75.5352 103.25C75.6654 103.323 75.9167 103.428 76.2891 103.566C76.7969 103.751 77.1393 103.938 77.3164 104.125C77.4961 104.312 77.5859 104.548 77.5859 104.832C77.5859 105.23 77.4362 105.538 77.1367 105.754C76.8398 105.97 76.4154 106.078 75.8633 106.078C75.3138 106.078 74.8802 105.988 74.5625 105.809V105.207C75.0052 105.431 75.4531 105.543 75.9062 105.543ZM80.4453 106.078C79.8125 106.078 79.3125 105.885 78.9453 105.5C78.5807 105.112 78.3984 104.574 78.3984 103.887C78.3984 103.199 78.5677 102.654 78.9062 102.25C79.2474 101.844 79.6953 101.641 80.25 101.641C80.8073 101.641 81.2409 101.819 81.5508 102.176C81.8633 102.522 82.0195 102.986 82.0195 103.566V103.977H79.0703C79.0833 104.477 79.2096 104.858 79.4492 105.121C79.6888 105.382 80.0339 105.512 80.4844 105.512C80.9349 105.512 81.3841 105.415 81.832 105.223V105.801C81.6055 105.9 81.388 105.97 81.1797 106.012C80.974 106.056 80.7292 106.078 80.4453 106.078ZM81.3242 103.449C81.3242 103.043 81.2331 102.732 81.0508 102.516C80.8685 102.297 80.6068 102.188 80.2656 102.188C79.9271 102.188 79.6549 102.298 79.4492 102.52C79.2435 102.741 79.1224 103.051 79.0859 103.449H81.3242ZM85.082 101.641C85.2695 101.641 85.4401 101.656 85.5938 101.688L85.5039 102.289C85.3268 102.25 85.1706 102.23 85.0352 102.23C84.6862 102.23 84.3893 102.371 84.1445 102.652C83.8997 102.931 83.7773 103.281 83.7773 103.703V106H83.1289V101.719H83.6641L83.7383 102.512H83.7695C83.9284 102.23 84.1198 102.016 84.3438 101.867C84.5703 101.716 84.8164 101.641 85.082 101.641ZM87.4766 105.543C88.1797 105.543 88.5312 105.324 88.5312 104.887C88.5312 104.72 88.4583 104.578 88.3125 104.461C88.1693 104.341 87.888 104.201 87.4688 104.039C87.0677 103.891 86.7826 103.76 86.6133 103.648C86.4466 103.536 86.3229 103.411 86.2422 103.273C86.1615 103.135 86.1211 102.967 86.1211 102.77C86.1211 102.423 86.263 102.148 86.5469 101.945C86.8307 101.742 87.2109 101.641 87.6875 101.641C88.1641 101.641 88.6237 101.734 89.0664 101.922L88.8359 102.449C88.4089 102.275 88.0312 102.188 87.7031 102.188C87.3776 102.188 87.1354 102.234 86.9766 102.328C86.8177 102.422 86.7383 102.555 86.7383 102.727C86.7383 102.841 86.7669 102.939 86.8242 103.02C86.8815 103.1 86.9753 103.177 87.1055 103.25C87.2357 103.323 87.487 103.428 87.8594 103.566C88.3672 103.751 88.7096 103.938 88.8867 104.125C89.0664 104.312 89.1562 104.548 89.1562 104.832C89.1562 105.23 89.0065 105.538 88.707 105.754C88.4102 105.97 87.9857 106.078 87.4336 106.078C86.8841 106.078 86.4505 105.988 86.1328 105.809V105.207C86.5755 105.431 87.0234 105.543 87.4766 105.543ZM33.7031 120H32.9453L31.3203 115.719H32.0156L32.9375 118.258C33.151 118.867 33.2734 119.253 33.3047 119.414H33.3359C33.362 119.279 33.4492 119.001 33.5977 118.582C33.7461 118.16 34.0911 117.206 34.6328 115.719H35.3281L33.7031 120ZM35.9609 114.559C35.9609 114.415 35.9961 114.309 36.0664 114.238C36.1367 114.165 36.2279 114.129 36.3398 114.129C36.4518 114.129 36.5443 114.165 36.6172 114.238C36.6901 114.311 36.7266 114.418 36.7266 114.559C36.7266 114.699 36.6901 114.807 36.6172 114.883C36.5443 114.956 36.4518 114.992 36.3398 114.992C36.2279 114.992 36.1367 114.956 36.0664 114.883C35.9961 114.807 35.9609 114.699 35.9609 114.559ZM36.6641 120H36.0156V115.719H36.6641V120ZM39.8477 120.078C39.2148 120.078 38.7148 119.885 38.3477 119.5C37.9831 119.112 37.8008 118.574 37.8008 117.887C37.8008 117.199 37.9701 116.654 38.3086 116.25C38.6497 115.844 39.0977 115.641 39.6523 115.641C40.2096 115.641 40.6432 115.819 40.9531 116.176C41.2656 116.522 41.4219 116.986 41.4219 117.566V117.977H38.4727C38.4857 118.477 38.612 118.858 38.8516 119.121C39.0911 119.382 39.4362 119.512 39.8867 119.512C40.3372 119.512 40.7865 119.415 41.2344 119.223V119.801C41.0078 119.9 40.7904 119.97 40.582 120.012C40.3763 120.056 40.1315 120.078 39.8477 120.078ZM40.7266 117.449C40.7266 117.043 40.6354 116.732 40.4531 116.516C40.2708 116.297 40.0091 116.188 39.668 116.188C39.3294 116.188 39.0573 116.298 38.8516 116.52C38.6458 116.741 38.5247 117.051 38.4883 117.449H40.7266ZM46.7969 120H46.0273L45.2422 117.488C45.2057 117.376 45.1133 117.027 44.9648 116.441H44.9336C44.8242 116.913 44.7331 117.264 44.6602 117.496L43.8516 120H43.1016L41.9336 115.719H42.6133C42.9258 116.922 43.1354 117.741 43.2422 118.176C43.3906 118.754 43.474 119.133 43.4922 119.312H43.5234C43.5469 119.18 43.5938 118.987 43.6641 118.734C43.7344 118.479 43.7891 118.293 43.8281 118.176L44.6133 115.719H45.3164L46.082 118.176C46.2331 118.642 46.332 119.018 46.3789 119.305H46.4102C46.4232 119.211 46.4479 119.083 46.4844 118.922C46.5208 118.758 46.7956 117.69 47.3086 115.719H47.9805L46.7969 120ZM52.2852 120H51.7578L51.6719 119.426H51.6367C51.3346 119.861 50.8945 120.078 50.3164 120.078C49.7409 120.078 49.2969 119.887 48.9844 119.504C48.6745 119.118 48.5195 118.574 48.5195 117.871C48.5195 117.165 48.6758 116.617 48.9883 116.227C49.3008 115.836 49.7409 115.641 50.3086 115.641C50.8789 115.641 51.319 115.852 51.6289 116.273H51.6797L51.6523 115.965L51.6367 115.664V113.922H52.2852V120ZM51.6367 118.008V117.871C51.6367 117.264 51.5352 116.832 51.332 116.574C51.1367 116.316 50.8151 116.188 50.3672 116.188C49.987 116.188 49.6953 116.335 49.4922 116.629C49.2917 116.921 49.1914 117.339 49.1914 117.883C49.1914 118.427 49.2917 118.839 49.4922 119.117C49.6927 119.396 49.987 119.535 50.375 119.535C50.8177 119.535 51.138 119.415 51.3359 119.176C51.5365 118.934 51.6367 118.544 51.6367 118.008ZM55.7031 121.922C55.5104 121.922 55.3151 121.9 55.1172 121.855V121.336C55.263 121.367 55.4232 121.383 55.5977 121.383C56.043 121.383 56.3607 121.133 56.5508 120.633L56.7891 120.023L55.0625 115.719H55.7578L56.6953 118.16C56.8958 118.702 57.0234 119.104 57.0781 119.367H57.1094C57.1458 119.234 57.2109 119.026 57.3047 118.742C57.3984 118.456 57.7578 117.448 58.3828 115.719H59.0781L57.2383 120.594C57.0508 121.081 56.8372 121.422 56.5977 121.617C56.3555 121.82 56.0573 121.922 55.7031 121.922ZM59.5312 117.855C59.5312 117.158 59.7044 116.615 60.0508 116.227C60.3997 115.836 60.8789 115.641 61.4883 115.641C62.1003 115.641 62.5807 115.84 62.9297 116.238C63.2865 116.634 63.4648 117.177 63.4648 117.867C63.4648 118.557 63.2891 119.099 62.9375 119.492C62.5859 119.883 62.1003 120.078 61.4805 120.078C61.4701 120.078 61.4596 120.078 61.4492 120.078C60.8841 120.078 60.4232 119.878 60.0664 119.477C59.7096 119.076 59.5312 118.553 59.5312 117.91C59.5312 117.892 59.5312 117.874 59.5312 117.855ZM61.4883 116.195C60.6315 116.195 60.2031 116.749 60.2031 117.855C60.2031 118.402 60.3125 118.819 60.5312 119.105C60.7526 119.392 61.0742 119.535 61.4961 119.535C61.9206 119.535 62.2422 119.393 62.4609 119.109C62.6823 118.823 62.793 118.406 62.793 117.859C62.793 117.312 62.6823 116.898 62.4609 116.617C62.2422 116.336 61.918 116.195 61.4883 116.195ZM68.1445 120H67.6094L67.5156 119.426H67.4805C67.3477 119.637 67.1641 119.798 66.9297 119.91C66.6953 120.022 66.4258 120.078 66.1211 120.078C65.5924 120.078 65.2005 119.954 64.9453 119.707C64.6901 119.457 64.5625 119.061 64.5625 118.52V115.719H65.2188V118.496C65.2188 118.848 65.2982 119.109 65.457 119.281C65.6185 119.451 65.8672 119.535 66.2031 119.535C66.651 119.535 66.9779 119.413 67.1836 119.168C67.3919 118.921 67.4961 118.521 67.4961 117.969V115.719H68.1445V120ZM71.4766 115.641C71.6641 115.641 71.8346 115.656 71.9883 115.688L71.8984 116.289C71.7214 116.25 71.5651 116.23 71.4297 116.23C71.0807 116.23 70.7839 116.371 70.5391 116.652C70.2943 116.931 70.1719 117.281 70.1719 117.703V120H69.5234V115.719H70.0586L70.1328 116.512H70.1641C70.3229 116.23 70.5143 116.016 70.7383 115.867C70.9648 115.716 71.2109 115.641 71.4766 115.641ZM78.4023 120H77.8672L77.7734 119.426H77.7383C77.6055 119.637 77.4219 119.798 77.1875 119.91C76.9531 120.022 76.6836 120.078 76.3789 120.078C75.8503 120.078 75.4583 119.954 75.2031 119.707C74.9479 119.457 74.8203 119.061 74.8203 118.52V115.719H75.4766V118.496C75.4766 118.848 75.556 119.109 75.7148 119.281C75.8763 119.451 76.125 119.535 76.4609 119.535C76.9089 119.535 77.2357 119.413 77.4414 119.168C77.6497 118.921 77.7539 118.521 77.7539 117.969V115.719H78.4023V120ZM80.4297 116.305C80.7422 115.862 81.1849 115.641 81.7578 115.641C82.3333 115.641 82.776 115.835 83.0859 116.223C83.3958 116.611 83.5508 117.156 83.5508 117.859C83.5508 118.562 83.3932 119.108 83.0781 119.496C82.7656 119.884 82.3229 120.078 81.75 120.078C81.1771 120.078 80.737 119.868 80.4297 119.449H80.3828C80.4141 119.699 80.4297 119.936 80.4297 120.16V121.922H79.7812V115.719H80.3086L80.3984 116.305H80.4297ZM80.4297 117.855C80.4297 118.454 80.5299 118.885 80.7305 119.148C80.931 119.406 81.2526 119.535 81.6953 119.535C82.0677 119.535 82.3568 119.387 82.5625 119.09C82.7708 118.79 82.875 118.376 82.875 117.848C82.875 117.316 82.7708 116.909 82.5625 116.625C82.3568 116.339 82.0625 116.195 81.6797 116.195C81.2396 116.195 80.9219 116.316 80.7266 116.559C80.5312 116.801 80.4323 117.185 80.4297 117.711V117.855ZM88.2148 120H87.6875L87.6016 119.426H87.5664C87.2643 119.861 86.8242 120.078 86.2461 120.078C85.6706 120.078 85.2266 119.887 84.9141 119.504C84.6042 119.118 84.4492 118.574 84.4492 117.871C84.4492 117.165 84.6055 116.617 84.918 116.227C85.2305 115.836 85.6706 115.641 86.2383 115.641C86.8086 115.641 87.2487 115.852 87.5586 116.273H87.6094L87.582 115.965L87.5664 115.664V113.922H88.2148V120ZM87.5664 118.008V117.871C87.5664 117.264 87.4648 116.832 87.2617 116.574C87.0664 116.316 86.7448 116.188 86.2969 116.188C85.9167 116.188 85.625 116.335 85.4219 116.629C85.2214 116.921 85.1211 117.339 85.1211 117.883C85.1211 118.427 85.2214 118.839 85.4219 119.117C85.6224 119.396 85.9167 119.535 86.3047 119.535C86.7474 119.535 87.0677 119.415 87.2656 119.176C87.4661 118.934 87.5664 118.544 87.5664 118.008ZM89.7539 116.016C90.2018 115.771 90.6836 115.648 91.1992 115.648C91.7148 115.648 92.0938 115.763 92.3359 115.992C92.5807 116.219 92.7031 116.581 92.7031 117.078V120H92.2266L92.0977 119.391H92.0664C91.8529 119.659 91.6393 119.841 91.4258 119.938C91.2148 120.031 90.9505 120.078 90.6328 120.078C90.2083 120.078 89.875 119.969 89.6328 119.75C89.3906 119.529 89.2695 119.217 89.2695 118.816C89.2695 117.954 89.9622 117.501 91.3477 117.457L92.0742 117.434V117.168C92.0742 116.829 92.0013 116.582 91.8555 116.426C91.7122 116.267 91.4701 116.188 91.1289 116.188C90.7878 116.188 90.3958 116.296 89.9531 116.512L89.7539 116.016ZM89.9531 118.824C89.9531 119.056 90.0234 119.234 90.1641 119.359C90.3047 119.482 90.5039 119.543 90.7617 119.543C91.1654 119.543 91.4818 119.432 91.7109 119.211C91.9427 118.987 92.0586 118.677 92.0586 118.281V117.895L91.4102 117.922C90.8945 117.94 90.5221 118.021 90.293 118.164C90.0664 118.305 89.9531 118.525 89.9531 118.824ZM94.7422 115.719H95.9844V116.223H94.7422V118.742C94.7422 118.997 94.8021 119.195 94.9219 119.336C95.0443 119.474 95.2109 119.543 95.4219 119.543C95.6328 119.543 95.8307 119.517 96.0156 119.465V119.965C95.9531 119.996 95.8516 120.022 95.7109 120.043C95.5703 120.066 95.4453 120.078 95.3359 120.078C94.5078 120.078 94.0938 119.642 94.0938 118.77V116.223H93.4805V115.91L94.0938 115.641L94.3672 114.727H94.7422V115.719ZM98.6836 120.078C98.0508 120.078 97.5508 119.885 97.1836 119.5C96.819 119.112 96.6367 118.574 96.6367 117.887C96.6367 117.199 96.806 116.654 97.1445 116.25C97.4857 115.844 97.9336 115.641 98.4883 115.641C99.0456 115.641 99.4792 115.819 99.7891 116.176C100.102 116.522 100.258 116.986 100.258 117.566V117.977H97.3086C97.3216 118.477 97.4479 118.858 97.6875 119.121C97.9271 119.382 98.2721 119.512 98.7227 119.512C99.1732 119.512 99.6224 119.415 100.07 119.223V119.801C99.8438 119.9 99.6263 119.97 99.418 120.012C99.2122 120.056 98.9674 120.078 98.6836 120.078ZM99.5625 117.449C99.5625 117.043 99.4714 116.732 99.2891 116.516C99.1068 116.297 98.8451 116.188 98.5039 116.188C98.1654 116.188 97.8932 116.298 97.6875 116.52C97.4818 116.741 97.3607 117.051 97.3242 117.449H99.5625Z" fill="#203040"/>
</g>
<g filter="url(#filter1_dd_662_10043)">
<rect x="127" y="16" width="64" height="58" rx="10" fill="white" shape-rendering="crispEdges"/>
<path d="M154.2 46.5V34.5L160.025 28.725C160.225 28.525 160.454 28.4083 160.713 28.375C160.971 28.3417 161.225 28.3833 161.475 28.5C161.708 28.6333 161.883 28.8167 162 29.05C162.117 29.2833 162.142 29.5333 162.075 29.8L161 34.5H167.7C168.167 34.5 168.583 34.6833 168.95 35.05C169.317 35.4167 169.5 35.8333 169.5 36.3V37.925C169.5 38.025 169.487 38.1373 169.462 38.262C169.437 38.3873 169.408 38.5 169.375 38.6L166.5 45.35C166.367 45.6833 166.129 45.9583 165.788 46.175C165.446 46.3917 165.092 46.5 164.725 46.5H154.2ZM155.7 35.15V45H164.725C164.792 45 164.863 44.9793 164.938 44.938C165.013 44.896 165.075 44.8333 165.125 44.75L168 38V36.3C168 36.2167 167.971 36.1457 167.913 36.087C167.854 36.029 167.783 36 167.7 36H159.1L160.35 30.525L155.7 35.15ZM151.3 46.5C150.8 46.5 150.375 46.325 150.025 45.975C149.675 45.625 149.5 45.2 149.5 44.7V36.3C149.5 35.8 149.675 35.375 150.025 35.025C150.375 34.675 150.8 34.5 151.3 34.5H154.2V36H151.3C151.217 36 151.146 36.029 151.088 36.087C151.029 36.1457 151 36.2167 151 36.3V44.7C151 44.7833 151.029 44.8543 151.088 44.913C151.146 44.971 151.217 45 151.3 45H154.2V46.5H151.3ZM155.7 45V35.15V45Z" fill="#2998FF"/>
<path d="M146.832 60H146.199V55.9297C146.199 55.6094 146.21 55.2891 146.23 54.9687C146.176 55.026 146.122 55.0768 146.07 55.1211C146.021 55.1654 145.703 55.4258 145.117 55.9023L144.773 55.457L146.285 54.2891H146.832V60ZM150.68 57.8477C150.174 57.8477 149.773 57.6979 149.477 57.3984C149.18 57.0963 149.031 56.6745 149.031 56.1328C149.031 55.5339 149.197 55.0638 149.527 54.7227C149.858 54.3789 150.296 54.207 150.84 54.207C150.853 54.207 150.866 54.207 150.879 54.207C151.444 54.207 151.898 54.431 152.242 54.8789C152.589 55.3268 152.762 55.931 152.762 56.6914C152.762 56.7044 152.762 56.7161 152.762 56.7266C152.762 58.9609 151.897 60.0781 150.168 60.0781C149.868 60.0781 149.629 60.0521 149.449 60V59.4414C149.66 59.5091 149.897 59.543 150.16 59.543C150.785 59.543 151.257 59.3503 151.574 58.9648C151.895 58.5768 152.069 57.9831 152.098 57.1836H152.051C151.91 57.3997 151.721 57.5651 151.484 57.6797C151.247 57.7917 150.979 57.8477 150.68 57.8477ZM150.84 54.7617C150.467 54.7617 150.18 54.8815 149.977 55.1211C149.773 55.3581 149.672 55.6797 149.672 56.0859C149.672 56.4922 149.767 56.8008 149.957 57.0117C150.15 57.2227 150.434 57.3281 150.809 57.3281C150.824 57.3281 150.84 57.3281 150.855 57.3281C151.186 57.3281 151.477 57.2227 151.727 57.0117C151.979 56.7982 152.105 56.5573 152.105 56.2891C152.105 56.2812 152.105 56.2734 152.105 56.2656C152.108 55.9948 152.056 55.7435 151.949 55.5117C151.842 55.2799 151.693 55.0977 151.5 54.9648C151.307 54.8294 151.096 54.7617 150.867 54.7617C150.857 54.7617 150.848 54.7617 150.84 54.7617ZM156.723 59.3984H159.242V60H156.059V54.2891H156.723V59.3984ZM160.062 54.5586C160.062 54.4154 160.098 54.3086 160.168 54.2383C160.238 54.1654 160.329 54.1289 160.441 54.1289C160.553 54.1289 160.646 54.1654 160.719 54.2383C160.792 54.3112 160.828 54.418 160.828 54.5586C160.828 54.6992 160.792 54.8073 160.719 54.8828C160.646 54.9557 160.553 54.9922 160.441 54.9922C160.329 54.9922 160.238 54.9557 160.168 54.8828C160.098 54.8073 160.062 54.6992 160.062 54.5586ZM160.766 60H160.117V55.7187H160.766V60ZM162.781 53.9219V57.1445C162.781 57.2669 162.771 57.4883 162.75 57.8086H162.781C162.901 57.6419 163.072 57.4336 163.293 57.1836L164.676 55.7187H165.445L163.711 57.543L165.566 60H164.781L163.27 57.9766L162.781 58.3984V60H162.141V53.9219H162.781ZM168.152 60.0781C167.52 60.0781 167.02 59.8854 166.652 59.5C166.288 59.112 166.105 58.5742 166.105 57.8867C166.105 57.1992 166.275 56.6536 166.613 56.25C166.954 55.8437 167.402 55.6406 167.957 55.6406C168.514 55.6406 168.948 55.819 169.258 56.1758C169.57 56.5221 169.727 56.9857 169.727 57.5664V57.9766H166.777C166.79 58.4766 166.917 58.8581 167.156 59.1211C167.396 59.3815 167.741 59.5117 168.191 59.5117C168.642 59.5117 169.091 59.4154 169.539 59.2227V59.8008C169.312 59.8997 169.095 59.97 168.887 60.0117C168.681 60.056 168.436 60.0781 168.152 60.0781ZM169.031 57.4492C169.031 57.043 168.94 56.7318 168.758 56.5156C168.576 56.2969 168.314 56.1875 167.973 56.1875C167.634 56.1875 167.362 56.2982 167.156 56.5195C166.951 56.7409 166.829 57.0508 166.793 57.4492H169.031ZM171.918 59.543C172.621 59.543 172.973 59.3242 172.973 58.8867C172.973 58.72 172.9 58.5781 172.754 58.4609C172.611 58.3411 172.329 58.2005 171.91 58.0391C171.509 57.8906 171.224 57.7604 171.055 57.6484C170.888 57.5365 170.764 57.4115 170.684 57.2734C170.603 57.1354 170.562 56.9674 170.562 56.7695C170.562 56.4232 170.704 56.1484 170.988 55.9453C171.272 55.7422 171.652 55.6406 172.129 55.6406C172.605 55.6406 173.065 55.7344 173.508 55.9219L173.277 56.4492C172.85 56.2747 172.473 56.1875 172.145 56.1875C171.819 56.1875 171.577 56.2344 171.418 56.3281C171.259 56.4219 171.18 56.5547 171.18 56.7266C171.18 56.8411 171.208 56.9388 171.266 57.0195C171.323 57.1003 171.417 57.1771 171.547 57.25C171.677 57.3229 171.928 57.4284 172.301 57.5664C172.809 57.7513 173.151 57.9375 173.328 58.125C173.508 58.3125 173.598 58.5482 173.598 58.832C173.598 59.2305 173.448 59.5378 173.148 59.7539C172.852 59.97 172.427 60.0781 171.875 60.0781C171.326 60.0781 170.892 59.9883 170.574 59.8086V59.207C171.017 59.431 171.465 59.543 171.918 59.543Z" fill="#8B939C"/>
</g>
<g filter="url(#filter2_dd_662_10043)">
<rect x="127" y="82" width="64" height="58" rx="10" fill="white" shape-rendering="crispEdges"/>
<path fill-rule="evenodd" clip-rule="evenodd" d="M150.25 101C150.25 98.3766 152.377 96.25 155 96.25H163C165.623 96.25 167.75 98.3766 167.75 101V105C167.75 107.623 165.623 109.75 163 109.75H154.828C154.497 109.75 154.179 109.882 153.945 110.116L151.957 112.104C151.327 112.734 150.25 112.287 150.25 111.396V101ZM155 97.75C153.205 97.75 151.75 99.2051 151.75 101V110.189L152.884 109.055C153.4 108.54 154.099 108.25 154.828 108.25H163C164.795 108.25 166.25 106.795 166.25 105V101C166.25 99.2051 164.795 97.75 163 97.75H155Z" fill="#2998FF"/>
<path d="M135.625 120.887V120.289H139.43V120.809L137.094 126H136.375L138.742 120.887H135.625ZM145.035 126.078C144.191 126.078 143.542 125.823 143.086 125.312C142.63 124.802 142.402 124.077 142.402 123.137C142.402 123.124 142.402 123.111 142.402 123.098C142.402 122.53 142.512 122.026 142.73 121.586C142.952 121.146 143.27 120.806 143.684 120.566C144.1 120.327 144.578 120.207 145.117 120.207C145.13 120.207 145.142 120.207 145.152 120.207C145.749 120.207 146.272 120.316 146.723 120.535L146.441 121.105C146.007 120.902 145.574 120.801 145.145 120.801C144.517 120.801 144.021 121.01 143.656 121.43C143.294 121.846 143.113 122.423 143.113 123.16C143.113 123.895 143.288 124.467 143.637 124.879C143.988 125.285 144.488 125.488 145.137 125.488C145.538 125.488 145.992 125.417 146.5 125.273V125.855C146.094 126.004 145.605 126.078 145.035 126.078ZM147.41 123.855C147.41 123.158 147.583 122.615 147.93 122.227C148.279 121.836 148.758 121.641 149.367 121.641C149.979 121.641 150.46 121.84 150.809 122.238C151.165 122.634 151.344 123.177 151.344 123.867C151.344 124.557 151.168 125.099 150.816 125.492C150.465 125.883 149.979 126.078 149.359 126.078C149.349 126.078 149.339 126.078 149.328 126.078C148.763 126.078 148.302 125.878 147.945 125.477C147.589 125.076 147.41 124.553 147.41 123.91C147.41 123.892 147.41 123.874 147.41 123.855ZM149.367 122.195C148.51 122.195 148.082 122.749 148.082 123.855C148.082 124.402 148.191 124.819 148.41 125.105C148.632 125.392 148.953 125.535 149.375 125.535C149.799 125.535 150.121 125.393 150.34 125.109C150.561 124.823 150.672 124.406 150.672 123.859C150.672 123.312 150.561 122.898 150.34 122.617C150.121 122.336 149.797 122.195 149.367 122.195ZM157.145 121.641C157.634 121.641 157.997 121.767 158.234 122.02C158.474 122.272 158.594 122.668 158.594 123.207V126H157.945V123.215C157.945 122.871 157.871 122.616 157.723 122.449C157.577 122.28 157.352 122.195 157.047 122.195C156.643 122.195 156.345 122.311 156.152 122.543C155.96 122.772 155.863 123.128 155.863 123.609V126H155.215V123.215C155.215 122.871 155.141 122.616 154.992 122.449C154.846 122.28 154.62 122.195 154.312 122.195C153.904 122.195 153.605 122.316 153.418 122.559C153.23 122.801 153.137 123.199 153.137 123.754V126H152.488V121.719H153.016L153.121 122.305H153.152C153.275 122.096 153.447 121.934 153.668 121.816C153.892 121.699 154.142 121.641 154.418 121.641C155.085 121.641 155.522 121.883 155.73 122.367H155.762C155.889 122.141 156.074 121.964 156.316 121.836C156.561 121.706 156.837 121.641 157.145 121.641ZM164.59 121.641C165.079 121.641 165.443 121.767 165.68 122.02C165.919 122.272 166.039 122.668 166.039 123.207V126H165.391V123.215C165.391 122.871 165.316 122.616 165.168 122.449C165.022 122.28 164.797 122.195 164.492 122.195C164.089 122.195 163.79 122.311 163.598 122.543C163.405 122.772 163.309 123.128 163.309 123.609V126H162.66V123.215C162.66 122.871 162.586 122.616 162.437 122.449C162.292 122.28 162.065 122.195 161.758 122.195C161.349 122.195 161.051 122.316 160.863 122.559C160.676 122.801 160.582 123.199 160.582 123.754V126H159.934V121.719H160.461L160.566 122.305H160.598C160.72 122.096 160.892 121.934 161.113 121.816C161.337 121.699 161.587 121.641 161.863 121.641C162.53 121.641 162.967 121.883 163.176 122.367H163.207C163.335 122.141 163.52 121.964 163.762 121.836C164.007 121.706 164.283 121.641 164.59 121.641ZM169.187 126.078C168.555 126.078 168.055 125.885 167.687 125.5C167.323 125.112 167.141 124.574 167.141 123.887C167.141 123.199 167.31 122.654 167.648 122.25C167.99 121.844 168.437 121.641 168.992 121.641C169.549 121.641 169.983 121.819 170.293 122.176C170.605 122.522 170.762 122.986 170.762 123.566V123.977H167.812C167.826 124.477 167.952 124.858 168.191 125.121C168.431 125.382 168.776 125.512 169.227 125.512C169.677 125.512 170.126 125.415 170.574 125.223V125.801C170.348 125.9 170.13 125.97 169.922 126.012C169.716 126.056 169.471 126.078 169.187 126.078ZM170.066 123.449C170.066 123.043 169.975 122.732 169.793 122.516C169.611 122.297 169.349 122.187 169.008 122.187C168.669 122.187 168.397 122.298 168.191 122.52C167.986 122.741 167.865 123.051 167.828 123.449H170.066ZM173.895 121.641C174.415 121.641 174.805 121.767 175.062 122.02C175.32 122.272 175.449 122.668 175.449 123.207V126H174.801V123.23C174.801 122.879 174.72 122.618 174.559 122.449C174.4 122.28 174.152 122.195 173.816 122.195C173.366 122.195 173.036 122.316 172.828 122.559C172.622 122.801 172.52 123.199 172.52 123.754V126H171.871V121.719H172.398L172.504 122.305H172.535C172.668 122.094 172.853 121.931 173.09 121.816C173.329 121.699 173.598 121.641 173.895 121.641ZM177.48 121.719H178.723V122.223H177.48V124.742C177.48 124.997 177.54 125.195 177.66 125.336C177.783 125.474 177.949 125.543 178.16 125.543C178.371 125.543 178.569 125.517 178.754 125.465V125.965C178.691 125.996 178.59 126.022 178.449 126.043C178.309 126.066 178.184 126.078 178.074 126.078C177.246 126.078 176.832 125.642 176.832 124.77V122.223H176.219V121.91L176.832 121.641L177.105 120.727H177.48V121.719ZM180.695 125.543C181.398 125.543 181.75 125.324 181.75 124.887C181.75 124.72 181.677 124.578 181.531 124.461C181.388 124.341 181.107 124.201 180.687 124.039C180.286 123.891 180.001 123.76 179.832 123.648C179.665 123.536 179.542 123.411 179.461 123.273C179.38 123.135 179.34 122.967 179.34 122.77C179.34 122.423 179.482 122.148 179.766 121.945C180.049 121.742 180.43 121.641 180.906 121.641C181.383 121.641 181.842 121.734 182.285 121.922L182.055 122.449C181.628 122.275 181.25 122.187 180.922 122.187C180.596 122.187 180.354 122.234 180.195 122.328C180.036 122.422 179.957 122.555 179.957 122.727C179.957 122.841 179.986 122.939 180.043 123.02C180.1 123.1 180.194 123.177 180.324 123.25C180.454 123.323 180.706 123.428 181.078 123.566C181.586 123.751 181.928 123.937 182.105 124.125C182.285 124.312 182.375 124.548 182.375 124.832C182.375 125.23 182.225 125.538 181.926 125.754C181.629 125.97 181.204 126.078 180.652 126.078C180.103 126.078 179.669 125.988 179.352 125.809V125.207C179.794 125.431 180.242 125.543 180.695 125.543Z" fill="#8B939C"/>
</g>
</g>
<defs>
<filter id="filter0_dd_662_10043" x="-3" y="4" width="138" height="156" filterUnits="userSpaceOnUse" color-interpolation-filters="sRGB">
<feFlood flood-opacity="0" result="BackgroundImageFix"/>
<feColorMatrix in="SourceAlpha" type="matrix" values="0 0 0 0 0 0 0 0 0 0 0 0 0 0 0 0 0 0 127 0" result="hardAlpha"/>
<feOffset dy="4"/>
<feGaussianBlur stdDeviation="8"/>
<feComposite in2="hardAlpha" operator="out"/>
<feColorMatrix type="matrix" values="0 0 0 0 0 0 0 0 0 0 0 0 0 0 0 0 0 0 0.06 0"/>
<feBlend mode="normal" in2="BackgroundImageFix" result="effect1_dropShadow_662_10043"/>
<feColorMatrix in="SourceAlpha" type="matrix" values="0 0 0 0 0 0 0 0 0 0 0 0 0 0 0 0 0 0 127 0" result="hardAlpha"/>
<feOffset/>
<feGaussianBlur stdDeviation="4"/>
<feComposite in2="hardAlpha" operator="out"/>
<feColorMatrix type="matrix" values="0 0 0 0 0 0 0 0 0 0 0 0 0 0 0 0 0 0 0.04 0"/>
<feBlend mode="normal" in2="effect1_dropShadow_662_10043" result="effect2_dropShadow_662_10043"/>
<feBlend mode="normal" in="SourceGraphic" in2="effect2_dropShadow_662_10043" result="shape"/>
</filter>
<filter id="filter1_dd_662_10043" x="111" y="4" width="96" height="90" filterUnits="userSpaceOnUse" color-interpolation-filters="sRGB">
<feFlood flood-opacity="0" result="BackgroundImageFix"/>
<feColorMatrix in="SourceAlpha" type="matrix" values="0 0 0 0 0 0 0 0 0 0 0 0 0 0 0 0 0 0 127 0" result="hardAlpha"/>
<feOffset dy="4"/>
<feGaussianBlur stdDeviation="8"/>
<feComposite in2="hardAlpha" operator="out"/>
<feColorMatrix type="matrix" values="0 0 0 0 0 0 0 0 0 0 0 0 0 0 0 0 0 0 0.06 0"/>
<feBlend mode="normal" in2="BackgroundImageFix" result="effect1_dropShadow_662_10043"/>
<feColorMatrix in="SourceAlpha" type="matrix" values="0 0 0 0 0 0 0 0 0 0 0 0 0 0 0 0 0 0 127 0" result="hardAlpha"/>
<feOffset/>
<feGaussianBlur stdDeviation="4"/>
<feComposite in2="hardAlpha" operator="out"/>
<feColorMatrix type="matrix" values="0 0 0 0 0 0 0 0 0 0 0 0 0 0 0 0 0 0 0.04 0"/>
<feBlend mode="normal" in2="effect1_dropShadow_662_10043" result="effect2_dropShadow_662_10043"/>
<feBlend mode="normal" in="SourceGraphic" in2="effect2_dropShadow_662_10043" result="shape"/>
</filter>
<filter id="filter2_dd_662_10043" x="111" y="70" width="96" height="90" filterUnits="userSpaceOnUse" color-interpolation-filters="sRGB">
<feFlood flood-opacity="0" result="BackgroundImageFix"/>
<feColorMatrix in="SourceAlpha" type="matrix" values="0 0 0 0 0 0 0 0 0 0 0 0 0 0 0 0 0 0 127 0" result="hardAlpha"/>
<feOffset dy="4"/>
<feGaussianBlur stdDeviation="8"/>
<feComposite in2="hardAlpha" operator="out"/>
<feColorMatrix type="matrix" values="0 0 0 0 0 0 0 0 0 0 0 0 0 0 0 0 0 0 0.06 0"/>
<feBlend mode="normal" in2="BackgroundImageFix" result="effect1_dropShadow_662_10043"/>
<feColorMatrix in="SourceAlpha" type="matrix" values="0 0 0 0 0 0 0 0 0 0 0 0 0 0 0 0 0 0 127 0" result="hardAlpha"/>
<feOffset/>
<feGaussianBlur stdDeviation="4"/>
<feComposite in2="hardAlpha" operator="out"/>
<feColorMatrix type="matrix" values="0 0 0 0 0 0 0 0 0 0 0 0 0 0 0 0 0 0 0.04 0"/>
<feBlend mode="normal" in2="effect1_dropShadow_662_10043" result="effect2_dropShadow_662_10043"/>
<feBlend mode="normal" in="SourceGraphic" in2="effect2_dropShadow_662_10043" result="shape"/>
</filter>
<clipPath id="clip0_662_10043">
<rect width="204" height="156" fill="white"/>
</clipPath>
</defs>
</svg>
